<svg width="24" height="24" viewBox="0 0 24 24" fill="none" xmlns="http://www.w3.org/2000/svg">
<g clip-path="url(#clip0_19_1983)">
<path d="M23.0621 3.75H6L5.62458 0.9375C5.62458 0.419719 5.20486 0 4.68708 0H0.9375C0.419719 0 0 0.419719 0 0.9375C0 1.45528 0.419719 1.875 0.9375 1.875H3.74958L5.62458 15.5625C5.62458 16.0803 6.0443 16.5 6.56208 16.5H20.2736C20.7017 16.5 21.0754 16.21 21.1817 15.7953L23.9702 4.92033C24.1221 4.32797 23.6741 3.75 23.0621 3.75ZM19.5462 14.625H7.49958L6.225 5.625H21.8539L19.5462 14.625ZM7.9875 18.375C6.43669 18.375 5.175 19.6367 5.175 21.1875C5.175 22.7383 6.43669 24 7.9875 24C9.53831 24 10.8 22.7383 10.8 21.1875C10.8 19.6367 9.53831 18.375 7.9875 18.375ZM7.9875 22.125C7.47056 22.125 7.05 21.7044 7.05 21.1875C7.05 20.6706 7.47056 20.25 7.9875 20.25C8.50444 20.25 8.925 20.6706 8.925 21.1875C8.925 21.7044 8.50444 22.125 7.9875 22.125ZM18.7875 18.375C17.2367 18.375 15.975 19.6367 15.975 21.1875C15.975 22.7383 17.2367 24 18.7875 24C20.3383 24 21.6 22.7383 21.6 21.1875C21.6 19.6367 20.3383 18.375 18.7875 18.375ZM18.7875 22.125C18.2706 22.125 17.85 21.7044 17.85 21.1875C17.85 20.6706 18.2706 20.25 18.7875 20.25C19.3044 20.25 19.725 20.6706 19.725 21.1875C19.725 21.7044 19.3044 22.125 18.7875 22.125Z" fill="#262526"/>
</g>
<defs>
<clipPath id="clip0_19_1983">
<rect width="24" height="24" fill="white"/>
</clipPath>
</defs>
</svg>
