<svg width="20" height="21" viewBox="0 0 20 21" fill="none" xmlns="http://www.w3.org/2000/svg">
<path d="M8.39982 0.899902H1.19982C0.987846 0.900472 0.784714 0.984933 0.634823 1.13482C0.484933 1.28471 0.400472 1.48785 0.399902 1.69982V8.89982C0.400724 9.11172 0.485265 9.31471 0.635101 9.46454C0.784938 9.61438 0.987923 9.69892 1.19982 9.69974H8.39982C8.61176 9.69898 8.81481 9.61447 8.9647 9.46463C9.11459 9.31478 9.19916 9.11176 9.19998 8.89982V1.69982C9.19935 1.48782 9.11483 1.28469 8.96491 1.13481C8.81498 0.984924 8.61182 0.900472 8.39982 0.899902ZM7.5999 8.0999H1.99998V2.49998H7.5999V8.0999ZM18.8 0.899902H11.6C11.388 0.900472 11.1848 0.984924 11.0349 1.13481C10.885 1.28469 10.8005 1.48782 10.7998 1.69982V8.89982C10.8006 9.11176 10.8852 9.31478 11.0351 9.46463C11.185 9.61447 11.388 9.69898 11.6 9.69974H18.8C19.0119 9.69892 19.2149 9.61438 19.3647 9.46454C19.5145 9.31471 19.5991 9.11172 19.5999 8.89982V1.69982C19.5993 1.48785 19.5149 1.28471 19.365 1.13482C19.2151 0.984933 19.012 0.900472 18.8 0.899902ZM17.9998 8.0999H12.3999V2.49998H17.9998V8.0999ZM8.39982 11.3001H1.19982C0.987846 11.3006 0.784714 11.3851 0.634823 11.535C0.484933 11.6849 0.400472 11.888 0.399902 12.1V19.3C0.400724 19.5119 0.485265 19.7149 0.635101 19.8647C0.784938 20.0145 0.987923 20.0991 1.19982 20.0999H8.39982C8.61176 20.0991 8.81481 20.0146 8.9647 19.8648C9.11459 19.7149 9.19916 19.5119 9.19998 19.3V12.1C9.19941 11.888 9.11492 11.6848 8.96498 11.5349C8.81503 11.385 8.61184 11.3006 8.39982 11.3001ZM7.5999 18.5001H1.99998V12.8999H7.5999V18.5001ZM18.8 11.3001H11.6C11.388 11.3006 11.1848 11.385 11.0348 11.5349C10.8849 11.6848 10.8004 11.888 10.7998 12.1V19.3C10.8006 19.5119 10.8852 19.7149 11.0351 19.8648C11.185 20.0146 11.388 20.0991 11.6 20.0999H18.8C19.0119 20.0991 19.2149 20.0145 19.3647 19.8647C19.5145 19.7149 19.5991 19.5119 19.5999 19.3V12.1C19.5993 11.888 19.5149 11.6849 19.365 11.535C19.2151 11.3851 19.012 11.3006 18.8 11.3001ZM17.9998 18.5001H12.3999V12.8999H17.9998V18.5001Z" fill="#262526"/>
</svg>
