<svg width="80" height="80" viewBox="0 0 80 80" fill="none" xmlns="http://www.w3.org/2000/svg">
<g clip-path="url(#clip0_0_723)">
<path d="M70.2257 36.9481V36.9516V71.724C70.2257 73.5211 69.5118 75.2446 68.2411 76.5153C66.9704 77.786 65.2469 78.4999 63.4498 78.4999H16.5533C14.7562 78.4999 13.0327 77.786 11.762 76.5153C10.4913 75.2446 9.7774 73.5211 9.7774 71.724L9.77741 36.9516L9.7774 36.9484C9.77385 35.2928 9.93511 33.6409 10.2588 32.0173L10.26 32.0112C10.9152 28.6523 12.2675 25.4682 14.2295 22.6643L14.3314 22.5242C14.3315 22.524 14.3316 22.5239 14.3317 22.5237C14.3318 22.5237 14.3318 22.5236 14.3319 22.5235C16.471 19.5854 17.7384 16.1132 18.0024 12.5047L40.2357 12.0443L62.0006 12.5041C62.2645 16.1128 63.5319 19.5852 65.6712 22.5235C65.6713 22.5237 65.6715 22.524 65.6717 22.5242L65.7736 22.6643C67.7356 25.4682 69.0879 28.6523 69.7431 32.0112L69.7443 32.0175C70.0683 33.6412 70.2296 35.2934 70.2257 36.9481ZM71.7257 36.9516V71.724C71.7257 73.9189 70.8538 76.0239 69.3017 77.5759C67.7497 79.128 65.6447 79.9999 63.4498 79.9999H16.5533C14.3584 79.9999 12.2534 79.128 10.7013 77.5759C9.14932 76.0239 8.2774 73.9189 8.2774 71.724V36.9516C8.27364 35.1965 8.4446 33.4453 8.78775 31.724L71.7257 36.9516Z" stroke="#414042" stroke-width="3"/>
<path d="M63.4485 0H16.552C14.2667 0 12.4141 1.85261 12.4141 4.13793V6.89655C12.4141 9.18187 14.2667 11.0345 16.552 11.0345H63.4485C65.7339 11.0345 67.5865 9.18187 67.5865 6.89655V4.13793C67.5865 1.85261 65.7339 0 63.4485 0Z" fill="#DCDCDC"/>
<path fill-rule="evenodd" clip-rule="evenodd" d="M71.7257 36.9517V64.8276H8.2774V36.9517C8.27364 35.1966 8.4446 33.4454 8.78775 31.7241H71.2153C71.5588 33.4455 71.7298 35.1972 71.7257 36.9517Z" fill="#5CB95A"/>
<path d="M19.2528 40.9833C19.1677 40.699 18.9931 40.4497 18.7551 40.2725C18.517 40.0952 18.2282 39.9995 17.9314 39.9995C17.6346 39.9995 17.3458 40.0952 17.1077 40.2725C16.8697 40.4497 16.6951 40.699 16.61 40.9833L12.4721 54.7764C12.3671 55.1268 12.4056 55.5046 12.5792 55.8267C12.7528 56.1487 13.0472 56.3886 13.3976 56.4936C13.7481 56.5986 14.1259 56.5601 14.4479 56.3865C14.77 56.2129 15.0099 55.9186 15.1148 55.5681L16.0611 52.4136H19.8017L20.748 55.5681C20.8529 55.9186 21.0928 56.2129 21.4149 56.3865C21.7369 56.5601 22.1147 56.5986 22.4652 56.4936C22.8156 56.3886 23.11 56.1487 23.2836 55.8267C23.4572 55.5046 23.4957 55.1268 23.3907 54.7764L19.2528 40.9833ZM16.8886 49.655L17.9314 46.1791L18.9742 49.655H16.8886Z" fill="white"/>
<path fill-rule="evenodd" clip-rule="evenodd" d="M33.2571 40.0082C32.9429 39.9715 32.6257 40.0445 32.3593 40.2149C32.0928 40.3854 31.8935 40.6427 31.795 40.9433L30.3454 45.2937L28.8957 40.9433C28.7961 40.6436 28.5967 40.3872 28.3307 40.2169C28.0648 40.0465 27.7484 39.9726 27.4345 40.0075C27.1206 40.0424 26.8282 40.1839 26.6061 40.4085C26.384 40.633 26.2458 40.927 26.2144 41.2413L24.835 55.0344C24.7985 55.3984 24.908 55.762 25.1395 56.0452C25.371 56.3285 25.7055 56.5081 26.0695 56.5447C26.4335 56.5813 26.7971 56.4718 27.0804 56.2403C27.3636 56.0088 27.5433 55.6742 27.5799 55.3102L28.3178 47.9337L29.0364 50.0909C29.1271 50.3669 29.3026 50.6072 29.5379 50.7775C29.7732 50.9478 30.0563 51.0395 30.3468 51.0395C30.6372 51.0395 30.9203 50.9478 31.1556 50.7775C31.3909 50.6072 31.5664 50.3669 31.6571 50.0909L32.3757 47.9337L33.1137 55.3102C33.1478 55.65 33.3068 55.965 33.5598 56.1943C33.8128 56.4236 34.1419 56.5509 34.4833 56.5516C34.5293 56.5543 34.5753 56.5543 34.6213 56.5516C34.8027 56.5344 34.979 56.4813 35.1398 56.3956C35.3007 56.3098 35.443 56.193 35.5584 56.0519C35.6738 55.9108 35.7602 55.7482 35.8124 55.5736C35.8646 55.3989 35.8817 55.2157 35.8626 55.0344L34.4833 41.2413C34.4515 40.9262 34.3123 40.6317 34.089 40.4071C33.8657 40.1826 33.572 40.0417 33.2571 40.0082ZM40.0006 39.9999C39.6347 39.9999 39.2839 40.1452 39.0252 40.4039C38.7666 40.6625 38.6213 41.0134 38.6213 41.3792V55.1723C38.6213 55.5381 38.7666 55.8889 39.0252 56.1476C39.2839 56.4063 39.6347 56.5516 40.0006 56.5516C40.3664 56.5516 40.7172 56.4063 40.9759 56.1476C41.2346 55.8889 41.3799 55.5381 41.3799 55.1723V41.3792C41.3799 41.0134 41.2346 40.6625 40.9759 40.4039C40.7172 40.1452 40.3664 39.9999 40.0006 39.9999ZM52.4144 39.9999C52.0485 39.9999 51.6977 40.1452 51.439 40.4039C51.1804 40.6625 51.035 41.0134 51.035 41.3792V49.3295L46.7592 40.7626C46.6225 40.4804 46.3938 40.2532 46.1107 40.1184C45.8276 39.9836 45.5071 39.9492 45.2018 40.021C44.8966 40.0928 44.625 40.2665 44.4317 40.5134C44.2384 40.7603 44.135 41.0657 44.1385 41.3792V55.1723C44.1385 55.5381 44.2838 55.8889 44.5425 56.1476C44.8012 56.4063 45.152 56.5516 45.5178 56.5516C45.8836 56.5516 46.2345 56.4063 46.4931 56.1476C46.7518 55.8889 46.8971 55.5381 46.8971 55.1723V47.222L51.173 55.7888C51.3096 56.0711 51.5383 56.2983 51.8214 56.4331C52.1045 56.5679 52.4251 56.6023 52.7303 56.5305C53.0355 56.4586 53.3072 56.285 53.5005 56.0381C53.6938 55.7912 53.7972 55.4858 53.7937 55.1723V41.3792C53.7937 41.0134 53.6483 40.6625 53.3897 40.4039C53.131 40.1452 52.7802 39.9999 52.4144 39.9999Z" fill="white"/>
<path d="M61.3788 40C57.8988 40 55.1719 43.6359 55.1719 48.2759C55.1719 52.9159 57.8988 56.5517 61.3788 56.5517C64.8588 56.5517 67.5857 52.9159 67.5857 48.2759C67.5857 43.6359 64.8588 40 61.3788 40ZM61.3788 53.7931C59.5098 53.7931 57.9305 51.2662 57.9305 48.2759C57.9305 45.2855 59.5098 42.7586 61.3788 42.7586C63.2477 42.7586 64.827 45.2855 64.827 48.2759C64.827 51.2662 63.2477 53.7931 61.3788 53.7931Z" fill="white"/>
</g>
<defs>
<clipPath id="clip0_0_723">
<rect width="80" height="80" fill="white"/>
</clipPath>
</defs>
</svg>
