<svg width="80" height="80" viewBox="0 0 80 80" fill="none" xmlns="http://www.w3.org/2000/svg">
<g clip-path="url(#clip0_0_737)">
<path d="M20.6891 20.8105H59.3098C61.5285 20.8105 63.327 22.6091 63.327 24.8278V74.483C63.327 76.7016 61.5285 78.5002 59.3098 78.5002H20.6891C18.4705 78.5002 16.6719 76.7016 16.6719 74.483V24.8278C16.6719 22.6091 18.4705 20.8105 20.6891 20.8105Z" stroke="#414042" stroke-width="3"/>
<path d="M57.9297 0H22.0676C19.7823 0 17.9297 1.85261 17.9297 4.13793V9.65517C17.9297 11.9405 19.7823 13.7931 22.0676 13.7931H57.9297C60.215 13.7931 62.0676 11.9405 62.0676 9.65517V4.13793C62.0676 1.85261 60.215 0 57.9297 0Z" fill="#D1D4D1"/>
<path d="M22.0703 13.793H57.9324V19.3102H22.0703V13.793Z" fill="black"/>
<path d="M15.1719 28.9653H64.827V70.3446H15.1719V28.9653Z" fill="#F3D55B"/>
<path d="M40.0005 64.8277C48.38 64.8277 55.173 58.0348 55.173 49.6553C55.173 41.2758 48.38 34.4829 40.0005 34.4829C31.621 34.4829 24.8281 41.2758 24.8281 49.6553C24.8281 58.0348 31.621 64.8277 40.0005 64.8277Z" fill="#F3AD5B"/>
<path d="M42.8743 57.7776L48.4436 42.6665H43.2592L39.9991 52.8388L36.7391 42.6665H31.5547L37.1239 57.7776H42.8743Z" fill="white"/>
</g>
<defs>
<clipPath id="clip0_0_737">
<rect width="80" height="80" fill="white"/>
</clipPath>
</defs>
</svg>
