<svg width="80" height="80" viewBox="0 0 80 80" fill="none" xmlns="http://www.w3.org/2000/svg">
<g clip-path="url(#clip0_0_697)">
<path fill-rule="evenodd" clip-rule="evenodd" d="M20.4453 7.11133H59.5564V15.1113H20.4453V7.11133Z" fill="black"/>
<path d="M20.6911 16.6724H59.3118C62.2063 16.6724 64.9823 17.8222 67.029 19.8689C69.0758 21.9157 70.2256 24.6916 70.2256 27.5862V70.3448C70.2256 72.5077 69.3664 74.582 67.837 76.1114C66.3076 77.6407 64.2333 78.4999 62.0704 78.4999H17.9325C15.7696 78.4999 13.6953 77.6407 12.1659 76.1114C10.6365 74.582 9.77734 72.5077 9.77734 70.3448V27.5862C9.77734 24.6916 10.9272 21.9157 12.9739 19.8689C15.0207 17.8222 17.7966 16.6724 20.6911 16.6724Z" stroke="#414042" stroke-width="3"/>
<path d="M60.6926 0H19.3133C17.7898 0 16.5547 1.23508 16.5547 2.75862V6.89655C16.5547 8.4201 17.7898 9.65517 19.3133 9.65517H60.6926C62.2162 9.65517 63.4512 8.4201 63.4512 6.89655V2.75862C63.4512 1.23508 62.2162 0 60.6926 0Z" fill="#D1D4D1"/>
<path fill-rule="evenodd" clip-rule="evenodd" d="M63.1049 66.207H71.7256V33.1035H8.27734V66.207H19.7256H63.1049Z" fill="#F34532"/>
<path fill-rule="evenodd" clip-rule="evenodd" d="M59.3113 58.8112C59.3064 61.5392 58.3219 64.1748 56.5372 66.238C54.7524 68.3012 52.2861 69.6549 49.5872 70.0526C42.7497 70.9073 35.82 69.5088 29.8492 66.0691L29.8216 66.0829C29.1946 66.2884 28.5278 66.3427 27.8758 66.2415C27.2238 66.1402 26.6049 65.8862 26.0697 65.5003C25.5344 65.1143 25.098 64.6073 24.7961 64.0206C24.4941 63.4339 24.3351 62.7841 24.332 62.1243V60.5657C23.3942 59.1006 22.8262 57.4298 22.6768 55.6967C22.4796 53.3911 22.8935 51.0742 23.8768 48.9795C26.6216 42.9657 31.2423 31.0898 32.3596 28.2071C32.5182 27.8057 32.8547 27.4995 33.2699 27.3795L41.463 25.0484C41.9541 24.9105 42.481 25.047 42.8423 25.407L46.801 29.3519C47.0579 29.6103 47.202 29.9599 47.202 30.3243C47.202 30.6887 47.0579 31.0383 46.801 31.2967L43.9182 34.1795L43.9044 34.207C44.1899 34.3491 44.4851 34.4746 44.7872 34.5795C45.387 34.8016 45.8773 35.2477 46.1551 35.8238C46.4329 36.4 46.4765 37.0615 46.2768 37.6691C46.0734 38.2827 45.6367 38.7916 45.0612 39.0858C44.4856 39.38 43.8174 39.436 43.201 39.2415C41.7605 38.7498 40.2536 38.48 38.732 38.4415C38.5941 38.4443 38.4561 38.4388 38.3182 38.4277C37.57 38.3881 36.8628 38.0737 36.332 37.545C36.1569 38.613 36.1476 39.7017 36.3044 40.7726C36.3816 41.4484 36.5292 42.1146 36.7458 42.7588C37.6851 45.3822 38.0837 48.1698 37.9182 50.9519L37.932 50.9381C38.6807 49.9805 39.6385 49.2068 40.732 48.676C42.8211 47.635 45.1398 47.1396 47.4719 47.2361C49.8041 47.3326 52.0739 48.0177 54.0699 49.2277C55.5142 50.1224 56.7323 51.3384 57.6295 52.781C58.5267 54.2237 59.0786 55.854 59.2423 57.545C59.2837 57.9698 59.3113 58.3836 59.3113 58.8112Z" fill="#FDD7AD"/>
<path fill-rule="evenodd" clip-rule="evenodd" d="M44.0791 64.6649C41.7488 64.8085 39.4239 64.3064 37.3605 63.2139C37.0549 63.0127 36.8417 62.6983 36.7678 62.3399C36.694 61.9815 36.7655 61.6085 36.9667 61.3028C37.1679 60.9972 37.4823 60.784 37.8407 60.7101C38.1991 60.6363 38.5721 60.7078 38.8778 60.909C38.9771 60.9697 42.8364 63.2304 51.5412 60.7408C51.7154 60.6909 51.8976 60.6759 52.0776 60.6966C52.2576 60.7172 52.4317 60.7731 52.5901 60.861C52.7485 60.9489 52.888 61.0672 53.0006 61.209C53.1133 61.3509 53.1969 61.5135 53.2467 61.6877C53.2965 61.8618 53.3116 62.0441 53.2909 62.224C53.2703 62.404 53.2144 62.5781 53.1265 62.7365C53.0386 62.8949 52.9203 63.0344 52.7785 63.1471C52.6366 63.2597 52.474 63.3434 52.2998 63.3932C49.6322 64.1973 46.8653 64.6249 44.0791 64.6649ZM28.4722 57.9311C28.2161 57.9313 27.9649 57.8602 27.7469 57.7258C27.5288 57.5913 27.3525 57.3988 27.2378 57.1697C26.7491 56.1114 26.4961 54.9596 26.4961 53.7939C26.4961 52.6282 26.7491 51.4764 27.2378 50.418C27.4022 50.0932 27.6883 49.8466 28.0338 49.7319C28.3794 49.6172 28.7562 49.6437 29.0822 49.8057C29.4082 49.9677 29.657 50.2521 29.7742 50.5967C29.8915 50.9414 29.8677 51.3184 29.7081 51.6456C29.4104 52.3214 29.2566 53.0519 29.2566 53.7904C29.2566 54.5289 29.4104 55.2594 29.7081 55.9352C29.8133 56.1457 29.8629 56.3795 29.8522 56.6145C29.8414 56.8496 29.7708 57.0779 29.647 57.2779C29.5231 57.478 29.3502 57.643 29.1445 57.7573C28.9389 57.8716 28.7075 57.9314 28.4722 57.9311Z" fill="#F9C795"/>
<path fill-rule="evenodd" clip-rule="evenodd" d="M39.2984 55.8041C39.1719 55.9913 39.0013 56.1445 38.8017 56.2504C38.6021 56.3562 38.3795 56.4114 38.1536 56.411C37.903 56.4114 37.6571 56.3435 37.4422 56.2146C37.2273 56.0858 37.0515 55.9008 36.9338 55.6796C36.8161 55.4584 36.7609 55.2093 36.7741 54.959C36.7873 54.7088 36.8684 54.4669 37.0088 54.2593C37.5412 53.2317 37.8501 52.1034 37.9191 50.9489L37.9329 50.9352C38.6816 49.9776 39.6394 49.2039 40.7329 48.6731C40.9837 51.1403 40.4837 53.6258 39.2984 55.8041ZM43.9053 34.2069L43.9191 34.1793L45.9743 32.1241C44.6214 31.5825 43.3991 30.7598 42.3881 29.7103C42.2595 29.5817 42.1068 29.4797 41.9388 29.4101C41.7707 29.3405 41.5906 29.3047 41.4088 29.3047C41.2269 29.3047 41.0468 29.3405 40.8788 29.4101C40.7107 29.4797 40.5581 29.5817 40.4294 29.7103C40.3008 29.8389 40.1988 29.9916 40.1292 30.1596C40.0596 30.3277 40.0238 30.5078 40.0238 30.6896C40.0238 30.8715 40.0596 31.0516 40.1292 31.2196C40.1988 31.3877 40.3008 31.5403 40.4294 31.6689C41.7727 33.0517 43.4079 34.1167 45.2157 34.7862C45.0802 34.7035 44.937 34.6342 44.7881 34.5793C44.4863 34.4738 44.1915 34.3494 43.9053 34.2069ZM36.3053 40.7696C35.4566 40.4971 34.7109 39.9727 34.1674 39.2662C33.7523 38.6683 33.4719 37.9875 33.3457 37.2707C33.2195 36.5538 33.2504 35.8182 33.4363 35.1145C33.4832 34.939 33.5645 34.7746 33.6755 34.6309C33.7865 34.4871 33.9249 34.3668 34.0827 34.277C34.2406 34.1871 34.4147 34.1296 34.595 34.1076C34.7753 34.0856 34.9581 34.0997 35.1329 34.149C35.8639 34.3572 36.2915 35.1117 36.0984 35.8455C36.0515 36.0441 36.0295 36.2483 36.0295 36.4524C36.0212 36.8386 36.126 37.2165 36.3329 37.5421C36.1578 38.6101 36.1485 39.6988 36.3053 40.7696Z" fill="#CBB292"/>
</g>
<defs>
<clipPath id="clip0_0_697">
<rect width="80" height="80" fill="white"/>
</clipPath>
</defs>
</svg>
