<svg width="80" height="80" viewBox="0 0 80 80" fill="none" xmlns="http://www.w3.org/2000/svg">
<g clip-path="url(#clip0_0_7740)">
<path d="M14.2951 32.2198L14.045 31.9665L13.7078 31.8525L8.00642 29.926L7.88564 29.8038L29.9339 7.46918L30.0303 7.56688L31.9345 13.3497L32.0446 13.6839L32.2918 13.9343L65.704 47.7805L65.9541 48.0338L66.2913 48.1478L71.9927 50.0743L72.1135 50.1965L50.0652 72.5311L49.9689 72.4334L48.0646 66.6507L47.9546 66.3164L47.7074 66.066L14.2951 32.2198Z" stroke="#727272" stroke-width="3"/>
<path d="M15.2259 31.039L48.582 65.0366L50.5913 71.182L51.9996 72.6173L49.9902 74.6668L48.582 73.23L46.5712 67.086L13.2151 33.0884L7.18702 31.039L5.77734 29.6037L7.78812 27.5557L9.19637 28.991L15.2259 31.039Z" fill="#414042"/>
<path d="M31.4176 14.9637L64.7737 48.9613L70.8032 51.0093L72.2114 52.4446L74.2222 50.3966L72.8125 48.9613L66.7845 46.9118L33.4284 12.9143L31.4176 6.77028L30.0094 5.3335L28 7.38294L29.4083 8.81827L31.4176 14.9637Z" fill="#D1D4D1"/>
<path d="M55.6701 79.9998L56.7037 74.9811L61.8657 73.9763L62.8964 68.9604L68.0584 67.957L69.0906 62.9383L74.2497 61.9363L75.2833 56.9177L80.4453 55.9128L73.219 48.8887L48.4453 72.9742L55.6701 79.9998Z" fill="#414042"/>
<path d="M80.4457 55.3806L72.8405 48.8887L70.668 50.7435L76.8244 55.9998L80.4457 55.3806Z" fill="#727272"/>
<path d="M20.8906 29.3629L29.1112 21.3335L59.1128 50.6374L50.8923 58.6668L20.8906 29.3629Z" fill="#F34532"/>
<path d="M0.445312 24.087L5.46397 23.0821L6.46883 18.0635L11.4846 17.0614L12.4881 12.0428L17.5067 11.0393L18.5088 6.02352L23.5274 5.01865L24.5323 0L31.5564 7.02555L7.47086 31.1111L0.445312 24.087Z" fill="#414042"/>
<path d="M24.2512 0L31.5547 6.91389L29.468 8.88889L23.5547 3.29213L24.2512 0Z" fill="#727272"/>
<path d="M55.7557 79.9998L48.6857 72.9284L50.7057 70.9084L56.43 76.6327L55.7557 79.9998ZM0 24.2441L7.07143 31.3141L9.09143 29.2941L3.36714 23.5698L0 24.2441Z" fill="black"/>
</g>
<defs>
<clipPath id="clip0_0_7740">
<rect width="80" height="80" fill="white"/>
</clipPath>
</defs>
</svg>
