<svg width="80" height="80" viewBox="0 0 80 80" fill="none" xmlns="http://www.w3.org/2000/svg">
<g clip-path="url(#clip0_0_685)">
<path d="M16.4453 7.11133H63.5564V16.8891H16.4453V7.11133Z" fill="black"/>
<path d="M64.8279 0H15.1727C13.6491 0 12.4141 1.23508 12.4141 2.75862V8.27586C12.4141 9.7994 13.6491 11.0345 15.1727 11.0345H64.8279C66.3514 11.0345 67.5865 9.7994 67.5865 8.27586V2.75862C67.5865 1.23508 66.3514 0 64.8279 0Z" fill="#D1D4D1"/>
<path d="M16.5532 18.0518H63.4498C67.192 18.0518 70.2257 21.0854 70.2257 24.8276V71.7242C70.2257 75.4664 67.192 78.5001 63.4498 78.5001H16.5532C12.811 78.5001 9.77734 75.4664 9.77734 71.7242V24.8276C9.77734 21.0854 12.811 18.0518 16.5532 18.0518Z" stroke="#414042" stroke-width="3"/>
<path d="M8.27734 31.7241H71.7257V64.8276H8.27734V31.7241Z" fill="#F34532"/>
<path d="M27.8639 40.0274C27.5055 39.956 27.1333 40.0297 26.8291 40.2325C26.525 40.4352 26.3138 40.7504 26.2419 41.1088L24.5012 49.8081L23.3853 46.4605C23.2946 46.1846 23.1191 45.9443 22.8838 45.774C22.6485 45.6036 22.3655 45.5119 22.075 45.5119C21.7845 45.5119 21.5014 45.6036 21.2661 45.774C21.0308 45.9443 20.8553 46.1846 20.7646 46.4605L19.6488 49.8081L17.9053 41.1033C17.8232 40.7553 17.6091 40.4528 17.3082 40.2595C17.0072 40.0663 16.6431 39.9975 16.2924 40.0677C15.9418 40.1378 15.632 40.3414 15.4286 40.6355C15.2251 40.9295 15.1439 41.2911 15.2019 41.644L17.9605 55.4371C18.0203 55.7352 18.1769 56.0052 18.406 56.2051C18.6351 56.405 18.9238 56.5236 19.2272 56.5425C19.5307 56.5613 19.8319 56.4794 20.0839 56.3095C20.336 56.1395 20.5249 55.891 20.6212 55.6026L22.0708 51.2578L23.5205 55.6081C23.612 55.8829 23.7877 56.1219 24.0226 56.2912C24.2576 56.4606 24.5399 56.5517 24.8295 56.5516H24.915C25.2181 56.5327 25.5064 56.4143 25.7354 56.2148C25.9643 56.0153 26.121 55.7458 26.1812 55.4481L28.9398 41.655C28.9761 41.4775 28.977 41.2946 28.9426 41.1167C28.9081 40.9389 28.839 40.7695 28.739 40.6184C28.6391 40.4672 28.5104 40.3372 28.3603 40.2358C28.2101 40.1345 28.0415 40.0636 27.8639 40.0274ZM52.4156 42.7585C52.7815 42.7585 53.1323 42.6132 53.391 42.3545C53.6496 42.0958 53.795 41.745 53.795 41.3792C53.795 41.0134 53.6496 40.6625 53.391 40.4039C53.1323 40.1452 52.7815 39.9999 52.4156 39.9999H45.5191C45.1533 39.9999 44.8024 40.1452 44.5438 40.4039C44.2851 40.6625 44.1398 41.0134 44.1398 41.3792V55.1723C44.1398 55.5381 44.2851 55.8889 44.5438 56.1476C44.8024 56.4063 45.1533 56.5516 45.5191 56.5516H52.4156C52.7815 56.5516 53.1323 56.4063 53.391 56.1476C53.6496 55.8889 53.795 55.5381 53.795 55.1723C53.795 54.8065 53.6496 54.4556 53.391 54.197C53.1323 53.9383 52.7815 53.793 52.4156 53.793H46.8984V49.655H51.0363C51.4022 49.655 51.753 49.5097 52.0117 49.251C52.2703 48.9924 52.4156 48.6415 52.4156 48.2757C52.4156 47.9099 52.2703 47.5591 52.0117 47.3004C51.753 47.0417 51.4022 46.8964 51.0363 46.8964H46.8984V42.7585H52.4156ZM65.5398 40.1971C65.2263 40.0088 64.8508 39.9527 64.4959 40.0411C64.141 40.1296 63.8358 40.3554 63.6474 40.6688L60.6915 45.5943L57.7356 40.6688C57.6441 40.5101 57.5219 40.3712 57.3761 40.2602C57.2303 40.1493 57.0638 40.0685 56.8864 40.0225C56.709 39.9766 56.5243 39.9665 56.343 39.9928C56.1616 40.019 55.9873 40.0812 55.8303 40.1756C55.6732 40.2699 55.5366 40.3947 55.4282 40.5425C55.3199 40.6902 55.2421 40.8581 55.1994 41.0363C55.1567 41.2145 55.1499 41.3994 55.1795 41.5802C55.209 41.7611 55.2743 41.9342 55.3715 42.0895L59.3122 48.6578V55.1723C59.3122 55.5381 59.4575 55.8889 59.7162 56.1476C59.9749 56.4063 60.3257 56.5516 60.6915 56.5516C61.0573 56.5516 61.4081 56.4063 61.6668 56.1476C61.9255 55.8889 62.0708 55.5381 62.0708 55.1723V48.6578L66.0115 42.0895C66.1998 41.776 66.2559 41.4005 66.1675 41.0456C66.079 40.6908 65.8532 40.3855 65.5398 40.1971ZM40.0019 39.9999C39.636 39.9999 39.2852 40.1452 39.0265 40.4039C38.7679 40.6625 38.6226 41.0134 38.6226 41.3792V46.8964H34.4846V41.3792C34.4846 41.0134 34.3393 40.6625 34.0806 40.4039C33.822 40.1452 33.4711 39.9999 33.1053 39.9999C32.7395 39.9999 32.3887 40.1452 32.13 40.4039C31.8713 40.6625 31.726 41.0134 31.726 41.3792V55.1723C31.726 55.5381 31.8713 55.8889 32.13 56.1476C32.3887 56.4063 32.7395 56.5516 33.1053 56.5516C33.4711 56.5516 33.822 56.4063 34.0806 56.1476C34.3393 55.8889 34.4846 55.5381 34.4846 55.1723V49.655H38.6226V55.1723C38.6226 55.5381 38.7679 55.8889 39.0265 56.1476C39.2852 56.4063 39.636 56.5516 40.0019 56.5516C40.3677 56.5516 40.7185 56.4063 40.9772 56.1476C41.2359 55.8889 41.3812 55.5381 41.3812 55.1723V41.3792C41.3812 41.0134 41.2359 40.6625 40.9772 40.4039C40.7185 40.1452 40.3677 39.9999 40.0019 39.9999Z" fill="white"/>
</g>
<defs>
<clipPath id="clip0_0_685">
<rect width="80" height="80" fill="white"/>
</clipPath>
</defs>
</svg>
