<svg width="80" height="80" viewBox="0 0 80 80" fill="none" xmlns="http://www.w3.org/2000/svg">
<g clip-path="url(#clip0_0_7726)">
<path d="M80.002 54.4829V64.1381C80.002 70.2346 69.5055 75.1726 56.5537 75.1726C43.602 75.1726 33.1055 70.2346 33.1055 64.1381V54.4829H80.002Z" fill="#7D6599"/>
<path d="M35.7714 54.4828H27.4956C13.7838 54.4828 2.66797 43.3669 2.66797 29.6552C2.66797 15.9435 13.7838 4.82764 27.4956 4.82764H35.7714L51.1124 13.7778L56.8902 21.7778V29.6552L51.1124 46.6667L35.7714 54.4828Z" fill="#BDC3C7"/>
<path d="M57.9335 29.6552C57.9393 34.6016 56.4593 39.4358 53.6852 43.5311C42.0852 44.1931 33.1059 48.8414 33.1059 54.4828C27 54.49 21.1081 52.2344 16.568 48.1518C15.8744 47.5409 15.2202 46.8867 14.6093 46.1931C5.82589 36.3807 6.23968 21.4138 15.5514 12.1007C24.8645 2.789 39.8314 2.3752 49.6438 11.1587C50.3376 11.7697 50.9914 12.4235 51.6024 13.1173C55.6851 17.6574 57.9407 23.5494 57.9335 29.6552Z" fill="white"/>
<path d="M56.4335 29.657L56.4335 29.6534C56.4402 23.9185 54.3217 18.3846 50.4871 14.1202L50.4819 14.1145L50.4768 14.1087C49.9076 13.4624 49.2987 12.8535 48.6524 12.2843L48.6433 12.2763L48.6434 12.2763C39.4243 4.02397 25.3623 4.41262 16.6121 13.1613C16.6121 13.1614 16.612 13.1614 16.612 13.1615M56.4335 29.657L14.6093 46.1931C5.82589 36.3807 6.23968 21.4138 15.5514 12.1007L16.612 13.1615M56.4335 29.657C56.439 34.3029 55.0488 38.8433 52.4433 42.6898C49.2548 47.3969 46.3578 49.9086 43.3872 51.2838C40.3977 52.6678 37.1656 52.9828 33.1059 52.9828H33.1041C27.3692 52.9896 21.8353 50.871 17.5709 47.0364L17.5652 47.0312L17.5593 47.0261C16.9133 46.4571 16.304 45.8478 15.735 45.2018L15.7351 45.2017L15.727 45.1927C7.47465 35.9736 7.8633 21.9116 16.612 13.1615M56.4335 29.657L16.612 13.1615" stroke="#95A5A5" stroke-width="3"/>
<path d="M51.6025 13.1173L16.568 48.1518C15.8744 47.541 15.2202 46.8868 14.6094 46.1932L49.6439 11.1587C50.3377 11.7697 50.9914 12.4235 51.6025 13.1173Z" fill="#95A5A5"/>
<path d="M80.002 54.483C80.002 60.5795 69.5055 65.5175 56.5537 65.5175C50.5166 65.6688 44.5276 64.4077 39.0641 61.8347C38.0653 61.322 37.1224 60.7072 36.2503 60.0002C35.3429 59.3783 34.5885 58.5587 34.0438 57.603C33.499 56.6474 33.1782 55.5806 33.1055 54.483C33.1055 48.8416 42.0848 44.1933 53.6848 43.5313C54.6227 43.4761 55.5882 43.4485 56.5537 43.4485C61.502 43.3878 66.4225 44.1954 71.0917 45.8347C72.2848 46.268 73.4424 46.7938 74.5537 47.4071C77.9606 49.3244 80.002 51.7933 80.002 54.483Z" fill="#B49ACA"/>
<path d="M74.5534 47.4069L39.0638 61.8345C38.065 61.3218 37.1221 60.707 36.25 60L71.0914 45.8345C72.2845 46.2678 73.4421 46.7935 74.5534 47.4069Z" fill="#5D4C72"/>
</g>
<defs>
<clipPath id="clip0_0_7726">
<rect width="80" height="80" fill="white"/>
</clipPath>
</defs>
</svg>
