<svg width="80" height="80" viewBox="0 0 80 80" fill="none" xmlns="http://www.w3.org/2000/svg">
<g clip-path="url(#clip0_0_711)">
<path d="M16.8906 7.11133H63.1128V18.6669H16.8906V7.11133Z" fill="black"/>
<path d="M64.8279 0H15.1727C13.6491 0 12.4141 1.23508 12.4141 2.75862V8.27586C12.4141 9.7994 13.6491 11.0345 15.1727 11.0345H64.8279C66.3514 11.0345 67.5865 9.7994 67.5865 8.27586V2.75862C67.5865 1.23508 66.3514 0 64.8279 0Z" fill="#D1D4D1"/>
<path d="M16.5532 18.0518H63.4498C67.192 18.0518 70.2257 21.0854 70.2257 24.8276V71.7242C70.2257 75.4664 67.192 78.5001 63.4498 78.5001H16.5532C12.811 78.5001 9.77734 75.4664 9.77734 71.7242V24.8276C9.77734 21.0854 12.811 18.0518 16.5532 18.0518Z" stroke="#414042" stroke-width="3"/>
<path d="M8.27734 31.7241H71.7257V64.8276H8.27734V31.7241Z" fill="#4092DD"/>
<path d="M24.3776 44.0389C24.3776 42.7327 23.8481 41.4801 22.9056 40.5565C21.9632 39.6329 20.6849 39.114 19.352 39.114H14.3265C13.9457 39.114 13.5805 39.2623 13.3112 39.5262C13.0419 39.79 12.8906 40.1479 12.8906 40.5211V54.5921C12.8906 54.9653 13.0419 55.3232 13.3112 55.5871C13.5805 55.851 13.9457 55.9992 14.3265 55.9992H19.352C20.351 56.0006 21.3277 55.7097 22.157 55.1638C22.9863 54.618 23.6305 53.842 24.0071 52.9353C24.3837 52.0285 24.4755 51.0323 24.2709 50.0741C24.0663 49.1159 23.5745 48.2393 22.8584 47.5566C23.3389 47.0997 23.721 46.5529 23.9819 45.9487C24.2429 45.3444 24.3774 44.695 24.3776 44.0389ZM21.5059 51.0744C21.5059 51.6341 21.2789 52.171 20.875 52.5668C20.4711 52.9626 19.9233 53.185 19.352 53.185H15.7624V48.9637H19.352C19.9233 48.9637 20.4711 49.1861 20.875 49.5819C21.2789 49.9777 21.5059 50.5146 21.5059 51.0744ZM15.7624 46.1495V41.9282H19.352C19.9233 41.9282 20.4711 42.1506 20.875 42.5464C21.2789 42.9422 21.5059 43.4791 21.5059 44.0389C21.5059 44.5987 21.2789 45.1355 20.875 45.5313C20.4711 45.9272 19.9233 46.1495 19.352 46.1495H15.7624ZM32.8334 41.9282C33.5129 41.9758 34.1679 42.1962 34.734 42.5675C35.3 42.9389 35.7575 43.4484 36.0613 44.0459C36.155 44.2082 36.2807 44.3506 36.4311 44.4649C36.5815 44.5791 36.7536 44.6629 36.9374 44.7114C37.1211 44.7599 37.3129 44.7722 37.5015 44.7474C37.6901 44.7226 37.8718 44.6614 38.036 44.5672C38.2003 44.473 38.3438 44.3478 38.4582 44.1988C38.5726 44.0498 38.6557 43.88 38.7025 43.6992C38.7494 43.5185 38.7591 43.3304 38.7311 43.146C38.7032 42.9615 38.638 42.7843 38.5396 42.6247C37.9867 41.6001 37.1683 40.7363 36.1666 40.12C35.165 39.5037 34.0154 39.1568 32.8334 39.114C28.9623 39.114 25.8135 42.9005 25.8135 47.5566C25.8135 52.2127 28.9623 55.9992 32.8334 55.9992C34.0154 55.9565 35.165 55.6095 36.1666 54.9933C37.1683 54.377 37.9867 53.5131 38.5396 52.4885C38.638 52.3289 38.7032 52.1518 38.7311 51.9673C38.7591 51.7828 38.7494 51.5948 38.7025 51.414C38.6557 51.2333 38.5726 51.0635 38.4582 50.9145C38.3438 50.7655 38.2003 50.6402 38.036 50.546C37.8718 50.4519 37.6901 50.3906 37.5015 50.3658C37.3129 50.3411 37.1211 50.3533 36.9374 50.4018C36.7536 50.4503 36.5815 50.5341 36.4311 50.6484C36.2807 50.7626 36.155 50.905 36.0613 51.0673C35.7577 51.665 35.3003 52.1747 34.7342 52.5461C34.1681 52.9175 33.513 53.1377 32.8334 53.185C30.5849 53.185 28.6852 50.6072 28.6852 47.5566C28.6852 44.506 30.5849 41.9282 32.8334 41.9282ZM47.1922 41.9282C47.8716 41.9758 48.5266 42.1962 49.0927 42.5675C49.6587 42.9389 50.1162 43.4484 50.42 44.0459C50.5137 44.2082 50.6395 44.3506 50.7899 44.4649C50.9403 44.5791 51.1123 44.6629 51.2961 44.7114C51.4798 44.7599 51.6716 44.7722 51.8602 44.7474C52.0488 44.7226 52.2305 44.6614 52.3947 44.5672C52.559 44.473 52.7025 44.3478 52.8169 44.1988C52.9313 44.0498 53.0144 43.88 53.0612 43.6992C53.1081 43.5185 53.1178 43.3304 53.0898 43.146C53.0619 42.9615 52.9968 42.7843 52.8983 42.6247C52.3454 41.6001 51.527 40.7363 50.5253 40.12C49.5237 39.5037 48.3741 39.1568 47.1922 39.114C43.321 39.114 40.1722 42.9005 40.1722 47.5566C40.1722 52.2127 43.321 55.9992 47.1922 55.9992C48.3741 55.9565 49.5237 55.6095 50.5253 54.9933C51.527 54.377 52.3454 53.5131 52.8983 52.4885C52.9968 52.3289 53.0619 52.1518 53.0898 51.9673C53.1178 51.7828 53.1081 51.5948 53.0612 51.414C53.0144 51.2333 52.9313 51.0635 52.8169 50.9145C52.7025 50.7655 52.559 50.6402 52.3947 50.546C52.2305 50.4519 52.0488 50.3906 51.8602 50.3658C51.6716 50.3411 51.4798 50.3533 51.2961 50.4018C51.1123 50.4503 50.9403 50.5341 50.7899 50.6484C50.6395 50.7626 50.5137 50.905 50.42 51.0673C50.1164 51.665 49.659 52.1747 49.0929 52.5461C48.5268 52.9175 47.8717 53.1377 47.1922 53.185C44.9436 53.185 43.0439 50.6072 43.0439 47.5566C43.0439 44.506 44.9436 41.9282 47.1922 41.9282ZM68.7877 54.0687L63.0442 39.9977C62.9378 39.7361 62.7539 39.5118 62.5161 39.3538C62.2783 39.1958 61.9976 39.1113 61.7102 39.1113C61.4229 39.1113 61.1422 39.1958 60.9044 39.3538C60.6666 39.5118 60.4826 39.7361 60.3763 39.9977L54.6328 54.0687C54.4912 54.4154 54.4958 54.803 54.6458 55.1463C54.7958 55.4896 55.0788 55.7605 55.4326 55.8993C55.7864 56.0381 56.182 56.0336 56.5323 55.8866C56.8826 55.7396 57.159 55.4622 57.3007 55.1156L58.6619 51.7779H64.7586L66.1198 55.1156C66.2615 55.4622 66.5379 55.7396 66.8882 55.8866C67.2385 56.0336 67.6341 56.0381 67.9879 55.8993C68.3417 55.7605 68.6247 55.4896 68.7747 55.1463C68.9246 54.803 68.9293 54.4154 68.7877 54.0687ZM59.8106 48.9637L61.7102 44.309L63.6099 48.9637H59.8106Z" fill="white"/>
</g>
<defs>
<clipPath id="clip0_0_711">
<rect width="80" height="80" fill="white"/>
</clipPath>
</defs>
</svg>
