<svg width="20" height="20" viewBox="0 0 20 20" fill="none" xmlns="http://www.w3.org/2000/svg">
<g clip-path="url(#clip0_19_1966)">
<path d="M18.0469 4.375H16.1719C15.0949 4.375 14.2188 5.25117 14.2188 6.32812V18.0469C14.2188 19.1238 15.0949 20 16.1719 20H18.0469C19.1238 20 20 19.1238 20 18.0469V6.32812C20 5.25117 19.1238 4.375 18.0469 4.375ZM18.4375 18.0469C18.4375 18.2623 18.2623 18.4375 18.0469 18.4375H16.1719C15.9565 18.4375 15.7812 18.2623 15.7812 18.0469V6.32812C15.7812 6.11273 15.9565 5.9375 16.1719 5.9375H18.0469C18.2623 5.9375 18.4375 6.11273 18.4375 6.32812V18.0469Z" fill="#727272"/>
<path d="M3.82812 10.3125H1.95312C0.876172 10.3125 0 11.1887 0 12.2656V18.0469C0 19.1238 0.876172 20 1.95312 20H3.82812C4.90508 20 5.78125 19.1238 5.78125 18.0469V12.2656C5.78125 11.1887 4.90508 10.3125 3.82812 10.3125ZM4.21875 18.0469C4.21875 18.2623 4.04352 18.4375 3.82812 18.4375H1.95312C1.73773 18.4375 1.5625 18.2623 1.5625 18.0469V12.2656C1.5625 12.0502 1.73773 11.875 1.95312 11.875H3.82812C4.04352 11.875 4.21875 12.0502 4.21875 12.2656V18.0469Z" fill="#727272"/>
<path d="M10.9375 0H9.0625C7.98555 0 7.10938 0.876172 7.10938 1.95312V18.0469C7.10938 19.1238 7.98555 20 9.0625 20H10.9375C12.0145 20 12.8906 19.1238 12.8906 18.0469V1.95312C12.8906 0.876172 12.0145 0 10.9375 0ZM11.3281 18.0469C11.3281 18.2623 11.1529 18.4375 10.9375 18.4375H9.0625C8.84711 18.4375 8.67188 18.2623 8.67188 18.0469V1.95312C8.67188 1.73773 8.84711 1.5625 9.0625 1.5625H10.9375C11.1529 1.5625 11.3281 1.73773 11.3281 1.95312V18.0469Z" fill="#727272"/>
</g>
<defs>
<clipPath id="clip0_19_1966">
<rect width="20" height="20" fill="white"/>
</clipPath>
</defs>
</svg>
