<svg width="20" height="20" viewBox="0 0 20 20" fill="none" xmlns="http://www.w3.org/2000/svg">
<g clip-path="url(#clip0_19_1978)">
<path d="M18.3932 3.30815C16.218 1.13358 12.6795 1.13358 10.5049 3.30815L9.99983 3.81294L9.49504 3.30815C7.32046 1.13329 3.78163 1.13329 1.60706 3.30815C-0.523361 5.43857 -0.537195 8.81552 1.57498 11.1635C3.50142 13.3042 9.18304 17.9291 9.4241 18.1249C9.58775 18.2579 9.78467 18.3226 9.9804 18.3226C9.98688 18.3226 9.99335 18.3226 9.99953 18.3224C10.202 18.3318 10.406 18.2623 10.575 18.1249C10.816 17.9291 16.4982 13.3042 18.4253 11.1632C20.5371 8.81552 20.5233 5.43857 18.3932 3.30815ZM17.1125 9.98198C15.6105 11.6506 11.4818 15.092 9.99953 16.3132C8.51724 15.0923 4.38944 11.6512 2.88773 9.98228C1.41427 8.34458 1.40044 6.01224 2.85564 4.55703C3.59885 3.81412 4.57488 3.44237 5.5509 3.44237C6.52693 3.44237 7.50295 3.81383 8.24616 4.55703L9.3564 5.66727C9.48856 5.79943 9.65516 5.87831 9.82999 5.90598C10.1137 5.96691 10.4216 5.88773 10.6424 5.66757L11.7532 4.55703C13.2399 3.07092 15.6582 3.07121 17.144 4.55703C18.5992 6.01224 18.5854 8.34458 17.1125 9.98198Z" fill="#727272"/>
</g>
<defs>
<clipPath id="clip0_19_1978">
<rect width="20" height="20" fill="white"/>
</clipPath>
</defs>
</svg>
