<svg width="20" height="20" viewBox="0 0 20 20" fill="none" xmlns="http://www.w3.org/2000/svg">
<g id="pin(2) 1">
<g id="Group">
<g id="Group_2">
<path id="Vector" d="M9.99817 4.29932C7.95082 4.29932 6.28516 5.96498 6.28516 8.01232C6.28516 10.0597 7.95082 11.7253 9.99817 11.7253C12.0455 11.7253 13.7112 10.0597 13.7112 8.01232C13.7112 5.96498 12.0455 4.29932 9.99817 4.29932ZM9.99817 10.162C8.81285 10.162 7.84852 9.19764 7.84852 8.01232C7.84852 6.82701 8.81285 5.86268 9.99817 5.86268C11.1835 5.86268 12.1478 6.82701 12.1478 8.01232C12.1478 9.19764 11.1835 10.162 9.99817 10.162Z" fill="#ECECEC"/>
</g>
</g>
<g id="Group_3">
<g id="Group_4">
<path id="Vector_2" d="M10.0006 0C5.58258 0 1.98828 3.59434 1.98828 8.01231V8.23379C1.98828 10.4682 3.2693 13.0719 5.79586 15.9726C7.62742 18.0754 9.4334 19.5416 9.50934 19.603L10.0006 20L10.4918 19.6031C10.5678 19.5417 12.3738 18.0754 14.2053 15.9726C16.7318 13.0719 18.0129 10.4682 18.0129 8.23383V8.01234C18.0129 3.59434 14.4186 0 10.0006 0ZM16.4495 8.23383C16.4495 12.0098 11.5843 16.5807 10.0006 17.9683C8.41648 16.5803 3.55164 12.0095 3.55164 8.23383V8.01234C3.55164 4.45641 6.44465 1.5634 10.0006 1.5634C13.5565 1.5634 16.4495 4.45641 16.4495 8.01234V8.23383Z" fill="#ECECEC"/>
</g>
</g>
</g>
</svg>
