<svg width="28" height="28" viewBox="0 0 28 28" fill="none" xmlns="http://www.w3.org/2000/svg">
<path d="M14 6.01904C11.1337 6.01904 8.80176 8.35097 8.80176 11.2173C8.80176 14.0835 11.1337 16.4155 14 16.4155C16.8663 16.4155 19.1982 14.0835 19.1982 11.2173C19.1982 8.35097 16.8663 6.01904 14 6.01904ZM14 14.2268C12.3405 14.2268 10.9905 12.8767 10.9905 11.2173C10.9905 9.55782 12.3405 8.20775 14 8.20775C15.6594 8.20775 17.0095 9.55782 17.0095 11.2173C17.0095 12.8767 15.6594 14.2268 14 14.2268Z" fill="#42B840"/>
<path d="M13.9999 0C7.81473 0 2.78271 5.03207 2.78271 11.2172V11.5273C2.78271 14.6554 4.57614 18.3007 8.11332 22.3616C10.6775 25.3055 13.2059 27.3583 13.3122 27.4443L13.9999 28L14.6877 27.4443C14.7941 27.3584 17.3224 25.3056 19.8866 22.3617C23.4237 18.3007 25.2172 14.6555 25.2172 11.5274V11.2173C25.2172 5.03207 20.1852 0 13.9999 0ZM23.0285 11.5274C23.0285 16.8137 16.2171 23.213 13.9999 25.1556C11.7822 23.2124 4.97142 16.8133 4.97142 11.5274V11.2173C4.97142 6.23897 9.02163 2.18876 13.9999 2.18876C18.9783 2.18876 23.0285 6.23897 23.0285 11.2173V11.5274Z" fill="#42B840"/>
</svg>
