<svg width="20" height="20" viewBox="0 0 20 20" fill="none" xmlns="http://www.w3.org/2000/svg">
<g clip-path="url(#clip0_0_863)">
<path d="M10 15.2734C12.2616 15.2734 14.1016 13.4335 14.1016 11.1719V7.07031H12.9297V5.27344C12.9297 3.65801 11.6154 2.34375 10 2.34375C8.38457 2.34375 7.07031 3.65801 7.07031 5.27344V7.07031H5.89844V11.1719C5.89844 13.4335 7.7384 15.2734 10 15.2734ZM8.24219 5.27344C8.24219 4.30418 9.03074 3.51562 10 3.51562C10.9693 3.51562 11.7578 4.30418 11.7578 5.27344V7.07031H8.24219V5.27344ZM7.07031 8.24219H12.9297V11.1719C12.9297 12.7873 11.6154 14.1016 10 14.1016C8.38457 14.1016 7.07031 12.7873 7.07031 11.1719V8.24219Z" fill="#9B9B9B"/>
<path d="M9.83902 19.954L10 20L10.161 19.954C15.2513 18.4996 18.7891 13.8283 18.7891 8.49988V1.17188H16.1021L14.9302 0H5.0698L3.89793 1.17188H1.21094V8.49988C1.21094 13.7941 4.71539 18.4901 9.83902 19.954ZM2.38281 2.34375H4.38332L5.5552 1.17188H14.4448L15.6167 2.34375H17.6172V8.49988C17.6172 13.2158 14.4933 17.4188 10 18.7798C5.50672 17.4187 2.38281 13.2158 2.38281 8.49988V2.34375Z" fill="#9B9B9B"/>
<path d="M9.41406 9.41406H10.5859V12.9297H9.41406V9.41406Z" fill="#9B9B9B"/>
</g>
<defs>
<clipPath id="clip0_0_863">
<rect width="20" height="20" fill="white"/>
</clipPath>
</defs>
</svg>
