<svg width="11" height="11" viewBox="0 0 11 11" fill="none" xmlns="http://www.w3.org/2000/svg">
<g clip-path="url(#clip0_0_971)">
<path d="M5.92922 8.55598L10.8243 3.66084C10.9376 3.54763 11 3.39649 11 3.23534C11 3.07418 10.9376 2.92305 10.8243 2.80983L10.4639 2.44933C10.229 2.21476 9.84733 2.21476 9.61285 2.44933L5.50228 6.5599L1.38715 2.44477C1.27384 2.33155 1.1228 2.26904 0.961733 2.26904C0.80049 2.26904 0.649442 2.33155 0.536045 2.44477L0.175731 2.80527C0.0624227 2.91857 8.03051e-07 3.06962 7.96006e-07 3.23077C7.88962e-07 3.39193 0.0624227 3.54306 0.175731 3.65628L5.07525 8.55598C5.18892 8.66947 5.34068 8.7318 5.50201 8.73145C5.66397 8.7318 5.81564 8.66947 5.92922 8.55598Z" fill="#9B9B9B"/>
</g>
<defs>
<clipPath id="clip0_0_971">
<rect width="11" height="11" fill="white" transform="translate(11) rotate(90)"/>
</clipPath>
</defs>
</svg>
