<svg width="286" height="68" viewBox="0 0 286 68" fill="none" xmlns="http://www.w3.org/2000/svg">
<g clip-path="url(#clip0_0_874)">
<path d="M81.2148 47.8295V45.3921L84.6732 44.5796V22.6639L81.2148 21.8514V19.632L92.4051 19.414V21.8514L88.9468 22.6639V44.5796H97.295L98.11 39.9232H100.952V47.8295H81.2148Z" fill="white"/>
<path d="M102.98 47.8295V45.6103L106.439 44.5867V29.3723L102.98 28.5491V26.512L110.514 26.3299V44.5867L113.555 45.6103V47.8295H102.98Z" fill="white"/>
<path d="M116.812 29.5599V27.1225L120.47 26.5081V24.0709C120.47 21.6007 121.122 19.6655 122.427 18.2649C123.733 16.8647 125.591 16.1644 128.003 16.1644C128.729 16.1644 129.433 16.2141 130.113 16.314C130.793 16.4135 131.364 16.5299 131.827 16.6632C132.289 16.7963 132.698 16.9323 133.055 17.0722C133.411 17.2119 133.675 17.3285 133.848 17.4212L134.105 17.5805V22.644H131.263L130.646 19.4127C129.984 19.2814 129.176 19.2159 128.221 19.2159C126.87 19.2159 125.919 19.5652 125.369 20.2632C124.819 20.9617 124.544 21.9628 124.544 23.2668V26.5078H129.931L129.791 29.5594H124.544V44.5979L128.619 45.6095V47.829H117.011V45.6095L120.47 44.5979V29.5594H116.812V29.5599Z" fill="white"/>
<path d="M133.488 37.2877C133.488 35.1348 133.906 33.196 134.741 31.472C135.576 29.7483 136.755 28.3908 138.279 27.3999C139.802 26.4093 141.532 25.9138 143.466 25.9138C149.138 25.9138 151.973 29.0912 151.973 35.445C151.973 35.749 151.957 36.0791 151.924 36.4357C151.891 36.7923 151.855 37.0896 151.816 37.3273L151.777 37.6839H137.762C137.762 39.8973 138.305 41.6661 139.392 42.9903C140.478 44.3142 141.903 44.976 143.665 44.976C144.866 44.976 146.035 44.7884 147.17 44.4129C148.305 44.0375 149.144 43.6654 149.685 43.2963L150.477 42.7432L151.894 44.8377C151.789 44.9307 151.643 45.0538 151.459 45.2063C151.274 45.3593 150.875 45.6284 150.262 46.0135C149.648 46.3989 149.025 46.7411 148.392 47.0398C147.759 47.339 146.971 47.6112 146.028 47.857C145.085 48.1028 144.158 48.2256 143.248 48.2256C140.055 48.2256 137.629 47.2581 135.973 45.3226C134.316 43.3877 133.488 40.7092 133.488 37.2877ZM137.921 34.6326H147.7C147.7 32.9919 147.342 31.6701 146.627 30.6676C145.911 29.6649 144.785 29.1635 143.248 29.1635C141.684 29.1635 140.435 29.678 139.501 30.7067C138.567 31.7353 138.04 33.0443 137.921 34.6326Z" fill="white"/>
<path d="M10.7713 13.248C10.6501 14.4178 10.2485 15.6073 9.88112 16.5209C9.70188 16.9789 9.51949 17.362 9.39754 17.6415C9.27218 17.9169 9.18519 18.0778 9.18519 18.0778C9.18519 18.0778 8.79071 17.794 8.38861 17.2121C7.98309 16.626 7.58072 15.7349 7.62435 14.5082C7.66114 13.2799 8.19018 11.9801 8.73105 11.0055C8.86824 10.7652 9.00385 10.5404 9.12974 10.3447C9.25563 10.145 9.38072 9.9771 9.48138 9.83692C9.68874 9.55658 9.82041 9.39545 9.82041 9.39545C9.82041 9.39545 10.1345 9.77169 10.3999 10.4458C10.5358 10.7828 10.6525 11.1904 10.7279 11.6597C10.8075 12.1334 10.8267 12.6595 10.7713 13.248Z" fill="url(#paint0_linear_0_874)"/>
<path d="M6.15847 21.9272C6.37923 23.2039 6.2812 24.5852 6.15584 25.666C6.12719 25.9385 6.09329 26.1895 6.05623 26.4148C6.02496 26.6393 5.99579 26.8398 5.96688 27.0027C5.91011 27.3344 5.86412 27.5296 5.86412 27.5296C5.86412 27.5296 5.36215 27.3478 4.7653 26.8461C4.46937 26.5971 4.14559 26.2634 3.85938 25.8253C3.58133 25.3935 3.32062 24.8506 3.17449 24.1948C2.86332 22.8738 3.0444 21.3395 3.33192 20.1628C3.46937 19.5712 3.64177 19.0705 3.77029 18.7171C3.8967 18.3618 3.99368 18.1569 3.99368 18.1569C3.99368 18.1569 4.1059 18.2319 4.27699 18.3841C4.44835 18.5366 4.68146 18.77 4.92772 19.0826C5.17108 19.3952 5.42575 19.7869 5.64388 20.2619C5.86149 20.734 6.05308 21.2913 6.15847 21.9272Z" fill="url(#paint1_linear_0_874)"/>
<path d="M3.90395 31.5398C4.5008 32.8357 4.80618 34.3249 5.04324 35.4964C5.10185 35.7906 5.13864 36.0668 5.18253 36.3115C5.22958 36.557 5.26453 36.7755 5.2916 36.9576C5.34548 37.3207 5.36492 37.5392 5.36492 37.5392C5.36492 37.5392 5.2188 37.5366 4.97491 37.4957C4.73023 37.4567 4.38726 37.3791 3.99252 37.2214C3.59725 37.0632 3.15099 36.8279 2.69895 36.4637C2.25795 36.0964 1.82878 35.6025 1.4456 34.9354C0.704469 33.6002 0.437714 31.8532 0.419055 30.4876C0.40644 30.1454 0.420106 29.8274 0.433772 29.5413C0.450067 29.2554 0.465835 28.9986 0.487386 28.7877C0.536006 28.3698 0.579633 28.1207 0.579633 28.1207C0.579633 28.1207 1.13601 28.3148 1.81459 28.8488C2.15073 29.116 2.5347 29.4668 2.8958 29.9112C3.25244 30.3537 3.6117 30.8948 3.90395 31.5398Z" fill="url(#paint2_linear_0_874)"/>
<path d="M4.60027 41.506C5.66834 42.6269 6.50119 44.0367 7.16532 45.1489C7.24259 45.2917 7.3188 45.4269 7.3916 45.5574C7.46545 45.6879 7.53615 45.8118 7.60343 45.9302C7.73484 46.1637 7.84522 46.374 7.93589 46.5512C8.11802 46.9057 8.22735 47.116 8.22735 47.116C8.22735 47.116 8.07623 47.1666 7.81079 47.2153C7.54377 47.2667 7.15954 47.3157 6.69673 47.3026C5.78976 47.2667 4.51512 46.9924 3.28595 45.8998C2.0594 44.8086 1.14323 43.1068 0.647307 41.6663C0.511433 41.3087 0.423391 40.9626 0.334298 40.6519C0.249672 40.3393 0.178975 40.0642 0.12799 39.8315C0.0383706 39.3657 0 39.079 0 39.079C0 39.079 0.159264 39.0845 0.428122 39.1286C0.698293 39.1776 1.07858 39.2679 1.51827 39.4299C1.95059 39.5962 2.47438 39.8331 2.99606 40.17C3.25835 40.3398 3.52327 40.5342 3.78765 40.7561C4.06229 40.9749 4.33536 41.222 4.60027 41.506Z" fill="url(#paint3_linear_0_874)"/>
<path d="M8.39695 50.7244C8.58092 50.8226 8.75385 50.9306 8.93598 51.037C9.11732 51.1449 9.29472 51.2573 9.46844 51.3747C9.81562 51.6092 10.1452 51.8583 10.4771 52.1036C10.6395 52.2283 10.7985 52.3535 10.952 52.4801C11.0285 52.5416 11.1034 52.6079 11.1778 52.6724C11.2569 52.7308 11.3323 52.7953 11.4083 52.8542C11.7071 53.0992 11.9851 53.3436 12.2414 53.5763C12.7746 54.0204 13.1912 54.4454 13.5147 54.7276C13.8272 55.016 14.0027 55.2007 14.0027 55.2007C14.0027 55.2007 13.8663 55.3068 13.6148 55.4559C13.3607 55.6013 12.9901 55.785 12.5126 55.9349C12.0364 56.0845 11.4443 56.2055 10.7796 56.1882C10.1121 56.1751 9.34098 56.0507 8.53046 55.6962C6.89209 55.0006 5.37987 53.5522 4.39274 52.239C4.13755 51.9141 3.93019 51.59 3.73624 51.3018C3.54727 51.0113 3.37802 50.7542 3.25818 50.5297C3.00851 50.0793 2.875 49.8005 2.875 49.8005C2.875 49.8005 3.03926 49.7502 3.33229 49.7049C3.62586 49.6633 4.04609 49.624 4.55148 49.6449C4.80615 49.6536 5.07711 49.679 5.3733 49.718C5.66949 49.7597 5.98355 49.8191 6.30943 49.9027C6.63374 49.9845 6.97382 50.0935 7.31574 50.2336C7.66923 50.3657 8.0327 50.5284 8.39695 50.7244Z" fill="url(#paint4_linear_0_874)"/>
<path d="M14.8493 58.3087C15.7365 58.4567 16.6085 58.7129 17.4474 58.981C17.8564 59.1256 18.2698 59.2595 18.6564 59.4007C18.8498 59.4764 19.0372 59.5487 19.2217 59.6176C19.4077 59.681 19.5886 59.7481 19.761 59.8144C20.4453 60.0929 21.0474 60.3083 21.4624 60.4948C21.6695 60.5886 21.8424 60.6436 21.9568 60.696C22.0721 60.7432 22.1352 60.7673 22.1352 60.7673C22.1352 60.7673 22.0419 60.9292 21.8427 61.1773C21.6443 61.4244 21.3413 61.7593 20.9158 62.1012C20.4947 62.4295 19.9523 62.763 19.2614 63.0124C18.9118 63.1419 18.5365 63.2317 18.1239 63.2907C17.7126 63.3457 17.2532 63.3805 16.7715 63.3457C16.2908 63.309 15.7922 63.2299 15.2963 63.1123C14.8088 62.9815 14.3194 62.8188 13.8395 62.6304C13.3691 62.4292 12.9131 62.2031 12.4747 61.9704C12.0435 61.7307 11.6453 61.4705 11.2692 61.218C11.1749 61.1561 11.0839 61.0925 10.9948 61.0343C10.9076 60.9672 10.8224 60.9028 10.7391 60.8391C10.5738 60.7136 10.4167 60.5902 10.27 60.4726C9.97487 60.2331 9.71442 60.0196 9.51442 59.8236C9.10654 59.4424 8.875 59.201 8.875 59.201C8.875 59.201 9.02901 59.0939 9.31653 58.9511C9.60194 58.8091 10.0227 58.6359 10.5499 58.4887C10.8135 58.4119 11.1018 58.3477 11.4167 58.2935C11.7347 58.2361 12.0763 58.1942 12.4374 58.1698C12.8004 58.1462 13.1799 58.147 13.5814 58.1698C13.9872 58.1868 14.4117 58.2306 14.8493 58.3087Z" fill="url(#paint5_linear_0_874)"/>
<path d="M23.5125 63.2946C23.9895 63.1903 24.4702 63.1188 24.9469 63.0701C25.4274 63.0012 25.9059 62.9585 26.3727 62.9336C26.8434 62.884 27.3012 62.8605 27.7396 62.8463C28.1827 62.8107 28.604 62.7879 28.9979 62.78C29.7864 62.7263 30.4626 62.7237 30.9483 62.6854C31.4305 62.6645 31.7193 62.6682 31.7193 62.6682C31.7193 62.6682 31.697 62.8675 31.6124 63.195C31.5278 63.5215 31.3777 63.9769 31.1078 64.4935C30.9737 64.7511 30.8061 65.0246 30.6034 65.3026C30.502 65.4417 30.3877 65.583 30.2668 65.7223C30.1438 65.8565 30.0111 65.9933 29.8678 66.1248C29.5769 66.3928 29.24 66.6517 28.8484 66.8972C28.4571 67.1411 28.014 67.3353 27.5091 67.5171C27.0024 67.7062 26.4686 67.8116 25.913 67.8959C25.354 67.989 24.789 68.0047 24.2195 67.9997C23.6484 68.0065 23.0917 67.9457 22.5467 67.8726C22.0003 67.809 21.4862 67.6905 21.0003 67.5713C20.7582 67.5147 20.5235 67.4547 20.2999 67.3911C20.0802 67.3203 19.8704 67.2517 19.6725 67.182C19.2762 67.0444 18.9225 66.9223 18.6407 66.7987C18.0739 66.5479 17.7422 66.3816 17.7422 66.3816C17.7422 66.3816 17.8602 66.2178 18.1043 65.9747C18.3464 65.7292 18.7141 65.4017 19.199 65.0663C19.6812 64.7372 20.2967 64.3714 21.015 64.0623C21.7288 63.7657 22.5714 63.4707 23.5125 63.2946Z" fill="url(#paint6_linear_0_874)"/>
<path d="M12.6359 14.6266C11.6086 15.0335 10.7237 15.9018 10.114 16.6627C9.8175 17.0468 9.57387 17.3942 9.42275 17.6565C9.26796 17.9169 9.18359 18.0778 9.18359 18.0778C9.18386 18.0752 9.64168 18.2434 10.3318 18.2772C11.0217 18.3123 11.9476 18.2284 12.8998 17.7775C13.8459 17.3185 14.6808 16.6147 15.289 16.0278C15.4425 15.8806 15.5799 15.7438 15.7003 15.6152C15.8222 15.4889 15.9318 15.3807 16.0183 15.2832C16.1925 15.0941 16.2882 14.9738 16.2882 14.9738C16.2882 14.9738 15.8898 14.6995 15.2356 14.5072C14.9098 14.4123 14.5113 14.3358 14.0709 14.339C13.6383 14.3447 13.1429 14.4168 12.6359 14.6266Z" fill="url(#paint7_linear_0_874)"/>
<path d="M8.5445 22.8311C7.57682 23.5775 6.87327 24.7592 6.4483 25.7469C6.34265 25.9958 6.25356 26.2311 6.17577 26.4433C6.10165 26.6576 6.0462 26.8502 5.99942 27.0095C5.90638 27.3315 5.86328 27.5293 5.86328 27.5293C5.86328 27.5293 6.3981 27.566 7.14607 27.4004C7.52137 27.3169 7.94528 27.1853 8.38681 26.9773C8.83753 26.7708 9.28563 26.4879 9.73346 26.1124C10.6134 25.3479 11.2948 24.341 11.7795 23.5196C12.0173 23.1088 12.2128 22.7475 12.3435 22.4878C12.4675 22.224 12.5435 22.0681 12.5435 22.0681C12.5435 22.0681 12.416 22.0262 12.1936 21.9845C11.9703 21.9418 11.6541 21.8983 11.2788 21.9028C10.903 21.9028 10.462 21.9523 9.99285 22.0875C9.52189 22.225 9.03385 22.4619 8.5445 22.8311Z" fill="url(#paint8_linear_0_874)"/>
<path d="M6.68514 31.7906C5.87962 32.8496 5.48277 34.3082 5.37738 35.4841C5.35005 35.7775 5.32403 36.0555 5.32035 36.3036C5.31983 36.5499 5.32456 36.771 5.33165 36.9523C5.34611 37.3207 5.36818 37.5392 5.36818 37.5392C5.36818 37.5392 5.50984 37.5036 5.74112 37.4087C5.97449 37.317 6.29565 37.1674 6.65544 36.9508C7.01576 36.7349 7.41497 36.449 7.79973 36.0911C8.19421 35.7335 8.59184 35.3004 8.92115 34.7832C9.60604 33.7514 10.0131 32.5527 10.2954 31.5862C10.3595 31.3449 10.4239 31.1188 10.4749 30.9165C10.5261 30.7109 10.5629 30.5306 10.5974 30.3781C10.6686 30.0771 10.6983 29.8905 10.6983 29.8905C10.6983 29.8905 10.1146 29.8515 9.31405 30.0579C8.90906 30.1609 8.46464 30.3304 8.00656 30.6058C7.54191 30.8791 7.09434 31.2613 6.68514 31.7906Z" fill="url(#paint9_linear_0_874)"/>
<path d="M7.54283 40.764C7.0816 42.1314 7.18646 43.7736 7.50052 45.014C7.53705 45.1709 7.5699 45.3216 7.61011 45.4633C7.6561 45.6061 7.69894 45.7395 7.7381 45.8684C7.8222 46.1236 7.90367 46.3465 7.97227 46.5347C8.03981 46.7246 8.11156 46.8656 8.1565 46.9633C8.20223 47.0634 8.22825 47.1163 8.22825 47.1163C8.22825 47.1163 8.35992 47.0267 8.56228 46.8457C8.76465 46.6654 9.0364 46.3953 9.32523 46.0452C9.91971 45.3294 10.5484 44.3 10.8855 42.9876C11.2248 41.6768 11.2112 40.3236 11.177 39.2732C11.1602 39.0112 11.162 38.7649 11.1426 38.5487C11.1289 38.33 11.1053 38.1395 11.0884 37.9799C11.0685 37.6603 11.0393 37.4695 11.0393 37.4695C11.0393 37.4695 10.8861 37.5104 10.6364 37.6063C10.3873 37.7046 10.0411 37.8605 9.65926 38.0984C9.27056 38.3386 8.87529 38.6593 8.49316 39.0955C8.30394 39.3107 8.12023 39.5572 7.95387 39.8347C7.79829 40.1137 7.65847 40.4184 7.54283 40.764Z" fill="url(#paint10_linear_0_874)"/>
<path d="M11.1649 48.9556C11.1631 49.1534 11.1623 49.3509 11.1831 49.5443C11.2033 49.7411 11.2304 49.937 11.2679 50.133C11.336 50.5239 11.4325 50.9159 11.5681 51.2859C11.6322 51.4724 11.7032 51.6569 11.7736 51.8371C11.8128 51.9259 11.8488 52.0182 11.8869 52.1078C11.9284 52.1932 11.9697 52.276 12.012 52.3632C12.1802 52.6991 12.3573 53.0216 12.5329 53.3185C12.9089 53.8891 13.2553 54.3828 13.5423 54.6972C13.8222 55.0186 14.0004 55.2007 14.0004 55.2007C14.0004 55.2007 14.1045 55.0624 14.2485 54.8043C14.3944 54.5476 14.5804 54.1713 14.7552 53.7078C14.9313 53.2436 15.0864 52.6991 15.2015 52.0766C15.3142 51.4556 15.3578 50.7867 15.3195 50.0589C15.2285 48.6139 14.7804 47.2484 14.4051 46.1862C14.3045 45.9273 14.2222 45.6766 14.1326 45.4623C14.0467 45.2445 13.9565 45.0609 13.8963 44.899C13.767 44.5809 13.6753 44.399 13.6753 44.399C13.6753 44.399 13.5308 44.4921 13.3068 44.6762C13.0827 44.8589 12.7799 45.1342 12.4674 45.5097C12.3124 45.6941 12.1494 45.9077 12.0009 46.1437C11.8551 46.3764 11.7171 46.6384 11.5938 46.9232C11.4711 47.2098 11.366 47.5269 11.285 47.8672C11.2149 48.2023 11.172 48.5647 11.1649 48.9556Z" fill="url(#paint11_linear_0_874)"/>
<path d="M17.0778 55.5482C17.3259 56.3345 17.748 57.0974 18.2681 57.7558C18.5198 58.098 18.8084 58.3959 19.0941 58.6807C19.2373 58.8225 19.3798 58.96 19.5262 59.09C19.6733 59.2128 19.8205 59.3313 19.9632 59.4437C20.533 59.9087 21.0883 60.2216 21.4823 60.4487C21.6781 60.5679 21.8476 60.6361 21.9593 60.69C22.072 60.7403 22.1348 60.7676 22.1348 60.7676C22.1348 60.7676 22.1837 60.5873 22.2281 60.2745C22.2762 59.9619 22.3196 59.5152 22.3191 58.9875C22.3235 58.4483 22.2875 57.8292 22.174 57.1779C22.1149 56.8582 22.0473 56.5152 21.953 56.1678C21.861 55.8186 21.739 55.4843 21.599 55.1287C21.026 53.7377 20.1706 52.5377 19.4691 51.6184C19.4239 51.5618 19.3785 51.5068 19.3348 51.4509C19.293 51.3954 19.2507 51.343 19.2116 51.2893C19.1288 51.184 19.0502 51.0836 18.9732 50.9903C18.8208 50.8041 18.6752 50.6505 18.5661 50.5077C18.3403 50.236 18.1903 50.0864 18.1903 50.0864C18.1903 50.0864 18.072 50.23 17.9007 50.4889C17.7301 50.7498 17.5072 51.1305 17.3038 51.6147C17.2039 51.8542 17.107 52.1243 17.0273 52.4136C16.9522 52.6991 16.8922 53.0091 16.8586 53.3408C16.8273 53.6735 16.8142 54.0317 16.8481 54.398C16.8846 54.7635 16.9574 55.1494 17.0778 55.5482Z" fill="url(#paint12_linear_0_874)"/>
<path d="M14.4653 8.54734C13.2923 9.63073 12.6377 10.9709 12.3065 11.982C12.2245 12.2395 12.1559 12.4722 12.106 12.6839C12.0574 12.8945 12.0235 13.0792 11.9972 13.2325C11.9475 13.5357 11.9336 13.7133 11.9336 13.7133C11.9336 13.7133 12.0997 13.6462 12.373 13.5105C12.5089 13.4416 12.6713 13.3598 12.8561 13.2579C13.0416 13.1605 13.2511 13.047 13.4703 12.9199C14.3596 12.4088 15.4716 11.693 16.4955 10.75C17.5144 9.80077 18.3002 8.76611 18.9055 7.94473C19.0563 7.74115 19.1904 7.54517 19.31 7.37251C19.4324 7.20351 19.537 7.05627 19.6222 6.92762C19.7946 6.67322 19.8868 6.51575 19.8868 6.51575C19.8868 6.51575 19.7113 6.50527 19.3996 6.51392C19.244 6.51994 19.0532 6.52885 18.8343 6.54693C18.6195 6.57575 18.3757 6.61584 18.1079 6.67086C17.8385 6.72221 17.5552 6.80238 17.2566 6.9043C17.1057 6.95461 16.9517 7.00806 16.7946 7.06701C16.6421 7.13513 16.486 7.20535 16.3278 7.28133C16.1691 7.35705 16.0093 7.43958 15.8482 7.52604C15.6921 7.62194 15.5362 7.72019 15.3778 7.82473C15.2232 7.93267 15.0621 8.03905 14.9115 8.16272C14.7609 8.28245 14.6117 8.41214 14.4653 8.54734Z" fill="url(#paint13_linear_0_874)"/>
<path d="M24.6936 59.6711C24.9616 60.0044 25.2707 60.324 25.6087 60.6219C25.9506 60.8946 26.3188 61.1522 26.7004 61.3822C27.0867 61.5947 27.4838 61.7862 27.8789 61.9518C28.2773 62.0965 28.6702 62.2225 29.0439 62.3304C29.7945 62.5039 30.4681 62.6171 30.949 62.6344C31.4326 62.6676 31.7212 62.6676 31.7212 62.6676C31.7212 62.6676 31.6902 62.4698 31.5992 62.1389C31.5078 61.8104 31.3572 61.3524 31.1343 60.8325C31.0208 60.5705 30.8915 60.2952 30.7422 60.0112C30.6681 59.8739 30.5892 59.7308 30.5051 59.5872C30.4205 59.4376 30.3335 59.2867 30.2389 59.1376C30.0539 58.8382 29.8478 58.5387 29.6213 58.2521C29.3953 57.9636 29.1503 57.6539 28.8831 57.3793C27.8121 56.2551 26.6058 55.4426 25.6421 54.8216C25.5206 54.7449 25.4018 54.6762 25.2902 54.6099C25.18 54.535 25.0723 54.4679 24.9711 54.4071C24.7685 54.2801 24.5832 54.1886 24.4321 54.0956C24.1309 53.9127 23.9422 53.8239 23.9422 53.8239C23.9422 53.8239 23.8712 54.0076 23.7866 54.333C23.7028 54.6545 23.6055 55.1135 23.5622 55.6726C23.5185 56.2349 23.543 56.8666 23.7014 57.5588C23.857 58.2618 24.1693 58.9613 24.6936 59.6711Z" fill="url(#paint14_linear_0_874)"/>
<path d="M33.3217 65.0312C33.3217 65.0312 33.8027 65.0503 34.7047 65.0889C34.9294 65.0991 35.1811 65.1106 35.4581 65.1237C35.7341 65.1193 36.0358 65.1132 36.3614 65.1077C36.6855 65.1009 37.0342 65.0938 37.4053 65.087C37.4963 65.0852 37.588 65.0844 37.6815 65.0826C37.778 65.0758 37.8758 65.0695 37.9751 65.0616C38.1738 65.0477 38.3777 65.0331 38.5882 65.0181C39.0085 64.9909 39.4513 64.9597 39.9031 64.8952C40.358 64.8308 40.8324 64.7996 41.326 64.7011C42.3144 64.5366 43.3767 64.3361 44.4918 64.0453C45.0474 63.8912 45.6245 63.7526 46.2019 63.5498C46.4921 63.4558 46.7859 63.3599 47.0844 63.2632C47.377 63.1516 47.6739 63.0395 47.9756 62.9252C48.5806 62.7075 49.1801 62.4313 49.8004 62.1701C50.1115 62.0412 50.4114 61.8775 50.7223 61.731C51.0303 61.5769 51.3483 61.4368 51.6524 61.2599C52.8973 60.6086 54.1307 59.8197 55.3596 58.9488C56.5783 58.0603 57.7812 57.0712 58.9347 55.9677C60.0926 54.8696 61.1696 53.6293 62.1815 52.3033C63.1809 50.9689 64.1339 49.552 64.9349 48.0203C66.551 44.9687 67.7386 41.5634 68.2805 37.9913C68.5544 36.2122 68.6621 34.3703 68.6377 32.5727L68.6177 31.8569C68.6117 31.6182 68.6077 31.3754 68.5846 31.1584L68.4758 29.8209L68.2989 28.4598C68.2293 28.0068 68.1381 27.5585 68.0595 27.1073C67.3615 23.5105 66.0069 20.0505 64.1504 16.9504C63.2164 15.4027 62.1496 13.9528 60.9922 12.6064C59.8322 11.2636 58.5691 10.0364 57.2456 8.92232C55.9257 7.80329 54.5118 6.84252 53.0808 5.98393C51.6442 5.13504 50.1793 4.3912 48.6926 3.80772C45.7225 2.63551 42.7428 1.93962 39.9457 1.6619C39.2479 1.57124 38.5583 1.55919 37.885 1.51413L37.6571 1.50286L37.4001 1.50365C37.2298 1.50365 37.0602 1.50443 36.8915 1.50443C36.5543 1.50443 36.2213 1.50365 35.8931 1.50286C35.5591 1.49212 35.2492 1.51675 34.9399 1.53666C34.6303 1.555 34.3244 1.57334 34.0229 1.59142C33.4192 1.60976 32.83 1.70827 32.2581 1.77613C31.9725 1.81281 31.6907 1.84844 31.4137 1.88329C31.1386 1.92757 30.871 1.98704 30.6064 2.03656C30.3412 2.08792 30.0813 2.13848 29.8258 2.18722C29.5706 2.23752 29.3162 2.27342 29.0757 2.34311C28.1073 2.59228 27.2053 2.79847 26.4203 3.08065C26.0232 3.21035 25.6479 3.33323 25.2939 3.44877C24.9477 3.58501 24.6224 3.71104 24.3199 3.82946C24.0169 3.94789 23.7354 4.05662 23.4786 4.15697C23.2245 4.26492 23 4.37653 22.795 4.46954C21.9761 4.845 21.5391 5.04595 21.5391 5.04595C21.5391 5.04595 21.9496 4.79417 22.7196 4.32387C22.9133 4.20911 23.127 4.07129 23.3696 3.93636C23.6163 3.80772 23.886 3.66833 24.1767 3.51663C24.4686 3.36519 24.783 3.20222 25.1178 3.02799C25.4642 2.8776 25.8321 2.71804 26.2205 2.54905C26.9922 2.18879 27.8847 1.89429 28.8529 1.54688C29.3378 1.37631 29.8581 1.25238 30.3927 1.09937C30.661 1.02784 30.9328 0.945837 31.2127 0.878763C31.4941 0.820336 31.7811 0.761385 32.0726 0.701124C32.6579 0.585318 33.2545 0.438071 33.8939 0.368378C34.2111 0.324885 34.5336 0.280344 34.8602 0.235803C35.1877 0.190738 35.5225 0.140171 35.8463 0.126285C36.1743 0.10349 36.507 0.080958 36.8426 0.0573775C37.0108 0.0468973 37.1804 0.0364171 37.3504 0.0251509L37.6064 0.00943063L37.6382 0.00654857L37.696 0.00471454H37.762L37.8942 0.00392852C38.5993 0.00838261 39.3239 -0.021486 40.0616 0.029343C41.5404 0.0691678 43.0745 0.265148 44.6521 0.533441C46.229 0.81562 47.8279 1.26601 49.4429 1.81569C52.6574 2.95044 55.9047 4.63565 58.8416 6.95807C60.3136 8.11115 61.7076 9.41489 62.9996 10.8457C64.2926 12.2739 65.4813 13.8328 66.5165 15.5076C68.5988 18.8518 70.0876 22.6357 70.865 26.5615C70.9494 27.0554 71.0459 27.5464 71.1194 28.0408L71.306 29.5285L71.4217 31.0515C71.4453 31.3109 71.4474 31.5462 71.4527 31.7846L71.4687 32.5004C71.4963 34.5192 71.3334 36.4821 71.0138 38.4293C70.7018 40.3724 70.1857 42.264 69.531 44.0737C68.8761 45.8857 68.0756 47.6171 67.1476 49.2389C65.295 52.488 62.9263 55.2671 60.3783 57.5235C59.0937 58.6425 57.7801 59.6562 56.4322 60.5166C55.0747 61.3624 53.7255 62.113 52.3767 62.7198C49.6921 63.9625 47.065 64.6809 44.7236 65.1043C43.5499 65.3126 42.4442 65.4491 41.4185 65.5154C40.9094 65.5683 40.4085 65.5571 39.9386 65.5799C39.465 65.6024 39.0224 65.593 38.6019 65.5806C38.3914 65.577 38.1872 65.572 37.988 65.5683C37.8884 65.5657 37.7903 65.5641 37.6936 65.5626C37.594 65.5547 37.496 65.5468 37.3995 65.5398C37.0227 65.5068 36.6694 65.4764 36.3404 65.4475C36.0137 65.4187 35.711 65.3907 35.4337 65.3658C35.1598 65.3231 34.9115 65.2846 34.6881 65.25C33.7972 65.1069 33.3217 65.0312 33.3217 65.0312Z" fill="white"/>
<path fill-rule="evenodd" clip-rule="evenodd" d="M34.5424 44.2476C34.8754 37.9904 32.555 31.8813 28.1479 27.4128C33.5248 30.6768 36.0179 35.9638 35.6273 43.2688C35.456 44.9574 36.5577 46.2743 37.6665 47.5597C34.7771 44.2086 42.4507 24.7967 24.6602 23.4688C26.4875 25.2533 26.96 28.377 26.0783 32.8402C25.5259 35.4938 26.1343 38.2553 27.7498 40.4334C29.3658 42.6104 31.8368 43.9977 34.5424 44.2476Z" fill="url(#paint15_linear_0_874)"/>
<path fill-rule="evenodd" clip-rule="evenodd" d="M38.2255 30.0273C38.0339 26.4305 38.8839 22.5036 41.4163 19.9372C38.3265 21.8121 37.378 25.2653 37.6014 29.4645C37.7004 30.4337 37.1848 32.3209 36.8571 32.1739C36.8571 30.2545 33.681 18.8486 43.9044 18.0848C42.8539 19.1109 42.6626 20.4025 42.0702 22.8887C41.6518 24.6452 42.164 25.9654 41.322 27.7065C40.6447 29.1074 39.7806 29.8827 38.2255 30.0273Z" fill="url(#paint16_linear_0_874)"/>
<path d="M36.3616 20.931C36.3714 19.6472 36.4168 18.618 36.4996 17.8446C36.5924 16.9719 36.8158 16.3116 37.1711 15.8649C37.5248 15.4192 38.0565 15.1221 38.7648 14.9733C39.4731 14.8253 40.4237 14.7131 41.6176 14.639V13.3562H26.5156V14.639C27.6707 14.7131 28.5937 14.8253 29.2838 14.9733C29.974 15.1221 30.4954 15.4192 30.8502 15.8649C31.2045 16.3116 31.4279 16.9719 31.5219 17.8446C31.6139 18.7189 31.6618 19.9173 31.6618 21.4422V23.7976C32.7695 24.7435 34.3348 26.2683 35.5241 28.1225C34.7519 23.9336 36.3616 20.931 36.3616 20.931Z" fill="white"/>
<path d="M52.8007 41.6743C51.9429 44.239 51.0475 46.06 50.1163 47.1389C49.4819 47.8078 48.5681 48.2451 47.3754 48.4487C46.9263 48.5254 46.4564 48.5839 45.976 48.6307C45.88 48.642 45.7754 48.6522 45.6735 48.6619C45.5946 48.668 45.5174 48.6758 45.438 48.6818C44.9082 48.7245 44.3108 48.7515 43.617 48.7549C43.5839 48.7549 43.5542 48.7534 43.521 48.7534C43.5005 48.7534 43.4808 48.7549 43.4609 48.7549C43.4267 48.7549 43.3959 48.7523 43.3623 48.7523C34.0372 48.7329 34.8832 45.5234 34.8832 45.5234C34.8832 45.5234 33.3578 45.1673 32.1139 44.8267C32.0913 45.3101 32.0608 45.7385 32.0217 46.1061C31.9286 46.9806 31.7042 47.6398 31.3502 48.0866C30.9954 48.5325 30.474 48.8304 29.7841 48.9784C29.0942 49.128 28.1709 49.2386 27.0156 49.3125V50.5947H52.2414C52.3531 50.2245 52.5016 49.6287 52.6885 48.811C52.8745 47.9943 53.0703 47.1389 53.2759 46.2455C53.4798 45.3539 53.6677 44.4992 53.8354 43.6807C54.0033 42.8638 54.124 42.2499 54.1989 41.8412L52.8007 41.6743Z" fill="white"/>
<path d="M106.925 16.6556C106.925 16.6556 100.247 13.7573 100.914 17.6733C101.581 21.5889 106.925 16.6556 106.925 16.6556Z" fill="#FFDE17"/>
<path d="M107.297 16.5102C107.546 16.2068 107.774 15.8974 108.001 15.5835C108.227 15.2704 108.441 14.9489 108.646 14.624C108.85 14.2994 109.041 13.9672 109.211 13.6279C109.377 13.2876 109.533 12.9433 109.638 12.5914C109.744 12.2419 109.807 11.8816 109.77 11.557C109.739 11.2303 109.595 10.9662 109.35 10.7825C109.106 10.5975 108.775 10.4867 108.426 10.4288C108.075 10.3714 107.707 10.3494 107.335 10.3565L107.051 10.3665C106.962 10.3738 106.874 10.3777 106.784 10.3872C106.603 10.4068 106.424 10.4291 106.253 10.4689C105.91 10.5404 105.594 10.6683 105.375 10.8499C105.157 11.0306 105.043 11.2646 105.026 11.5654C105.007 11.8643 105.08 12.2034 105.196 12.534C105.312 12.8676 105.477 13.1959 105.653 13.5197C105.832 13.8441 106.035 14.1592 106.245 14.4716C106.457 14.7828 106.682 15.087 106.913 15.3883C107.146 15.6886 107.385 15.9823 107.637 16.266L107.049 16.8356L106.849 16.6499L106.638 16.4586C106.497 16.3321 106.353 16.2073 106.207 16.0847C105.916 15.8395 105.615 15.606 105.31 15.3797C105.005 15.1551 104.691 14.9421 104.368 14.7498C104.044 14.5591 103.712 14.3846 103.368 14.2549C103.026 14.1257 102.669 14.0343 102.329 14.0484C101.987 14.0571 101.678 14.1941 101.457 14.4516C101.235 14.7084 101.103 15.059 101.025 15.4195C100.946 15.7824 100.91 16.1615 100.907 16.5419L100.91 16.8299C100.914 16.9231 100.916 17.0167 100.924 17.111C100.939 17.2991 100.959 17.4872 100.996 17.6699C101.067 18.0351 101.193 18.393 101.417 18.6649C101.638 18.939 101.966 19.0962 102.323 19.1145C102.68 19.1392 103.05 19.0527 103.402 18.9277C103.756 18.802 104.097 18.6317 104.429 18.4449C104.759 18.2541 105.078 18.0422 105.39 17.8189C105.701 17.5952 106.004 17.3586 106.297 17.1113C106.444 16.9876 106.589 16.8621 106.731 16.7345L106.944 16.5411L107.048 16.4434L107.144 16.3501L107.531 16.7264C107.284 17.0099 107.043 17.3127 106.814 17.6167C106.584 17.9224 106.365 18.2342 106.158 18.5525C105.952 18.8711 105.759 19.1963 105.588 19.5277C105.417 19.8584 105.264 20.1961 105.157 20.5359C105.051 20.8739 104.989 21.2184 105.016 21.5184C105.042 21.8216 105.166 22.0495 105.385 22.2206C105.607 22.3914 105.922 22.5046 106.262 22.5657C106.602 22.6275 106.966 22.6485 107.334 22.644L107.616 22.6354C107.704 22.6288 107.79 22.6252 107.879 22.6162C108.056 22.5979 108.234 22.5767 108.4 22.5387C108.736 22.4698 109.042 22.3477 109.246 22.1771C109.449 22.0068 109.55 21.7988 109.567 21.5135C109.585 21.231 109.514 20.9004 109.399 20.576C109.284 20.249 109.121 19.9244 108.945 19.6037C108.768 19.283 108.568 18.9689 108.355 18.661C108.142 18.3534 107.916 18.0519 107.68 17.7574C107.445 17.4637 107.196 17.1734 106.95 16.9006L107.697 16.1618C107.824 16.2802 107.971 16.4101 108.113 16.5314C108.256 16.6543 108.401 16.7748 108.548 16.8933C108.843 17.1293 109.143 17.3583 109.45 17.5747C109.757 17.7899 110.071 17.9932 110.391 18.1739C110.712 18.3537 111.038 18.5182 111.368 18.6361C111.696 18.7543 112.031 18.8295 112.324 18.814C112.62 18.7999 112.847 18.6943 113.029 18.4829C113.21 18.2712 113.34 17.9581 113.414 17.6182C113.49 17.2805 113.524 16.9053 113.533 16.549L113.534 16.259C113.53 16.1696 113.53 16.0813 113.525 15.9909C113.512 15.8104 113.498 15.6288 113.467 15.4556C113.41 15.1072 113.301 14.7763 113.115 14.5308C112.931 14.2855 112.665 14.1393 112.335 14.1068C112.008 14.0696 111.645 14.1325 111.294 14.2376C110.94 14.3426 110.593 14.4964 110.252 14.6633C109.911 14.8331 109.578 15.0239 109.252 15.2285C108.926 15.4329 108.605 15.6477 108.292 15.8743C107.978 16.1007 107.667 16.3321 107.368 16.5789L107.297 16.5102ZM107.302 16.5055C107.85 15.9493 108.44 15.4339 109.068 14.9602C109.384 14.7252 109.709 14.5014 110.05 14.2958C110.391 14.0911 110.748 13.9059 111.131 13.7607C111.514 13.6187 111.927 13.5076 112.379 13.5241C112.604 13.5331 112.838 13.5813 113.056 13.6842C113.273 13.7856 113.469 13.9392 113.621 14.1176C113.927 14.4789 114.079 14.9047 114.173 15.3131C114.223 15.5193 114.25 15.7245 114.273 15.9299C114.284 16.0331 114.289 16.1384 114.298 16.2427L114.31 16.5343L114.311 16.8464C114.307 16.9491 114.306 17.051 114.299 17.1545C114.285 17.3609 114.267 17.569 114.227 17.7799C114.189 17.9903 114.139 18.203 114.056 18.4155C113.974 18.6275 113.867 18.8415 113.711 19.0365C113.557 19.2314 113.353 19.4051 113.12 19.5238C112.888 19.6448 112.635 19.7046 112.394 19.7258C111.908 19.7646 111.467 19.6661 111.061 19.5372C110.653 19.4046 110.276 19.2317 109.914 19.0391C109.553 18.846 109.209 18.6327 108.874 18.4095C108.54 18.1852 108.216 17.9499 107.903 17.7029C107.745 17.5795 107.59 17.454 107.437 17.3258C107.282 17.1956 107.136 17.0706 106.977 16.926L107.724 16.1874C108.004 16.4861 108.256 16.79 108.507 17.1023C108.755 17.4147 108.995 17.7356 109.224 18.0668C109.451 18.3988 109.668 18.7401 109.866 19.0991C110.063 19.4588 110.239 19.8358 110.375 20.2438C110.508 20.6512 110.611 21.0943 110.574 21.5887C110.554 21.8336 110.494 22.0928 110.371 22.3314C110.25 22.5701 110.072 22.7805 109.872 22.9393C109.672 23.0996 109.453 23.212 109.237 23.2967C109.021 23.3829 108.805 23.4353 108.591 23.4769C108.376 23.5194 108.166 23.5398 107.956 23.5563C107.851 23.5642 107.743 23.5665 107.636 23.5715L107.335 23.5736C106.925 23.5681 106.509 23.5369 106.086 23.4497C105.666 23.3606 105.222 23.2126 104.835 22.8945C104.643 22.7362 104.476 22.5298 104.364 22.2982C104.25 22.0668 104.197 21.8171 104.183 21.5808C104.156 21.104 104.268 20.675 104.41 20.281C104.554 19.8859 104.741 19.5222 104.942 19.1727C105.147 18.8248 105.371 18.4936 105.605 18.1726C105.84 17.8525 106.086 17.5425 106.341 17.2407C106.597 16.9386 106.857 16.647 107.137 16.3596L107.524 16.7355L107.405 16.8388L107.291 16.9341L107.061 17.1212C106.907 17.2446 106.752 17.3651 106.595 17.4833C106.279 17.7188 105.958 17.9471 105.628 18.1637C105.298 18.3794 104.959 18.5827 104.607 18.7669C104.257 18.9516 103.895 19.1206 103.511 19.2448C103.129 19.3669 102.723 19.4541 102.301 19.425C102.091 19.4088 101.878 19.3593 101.684 19.2605C101.49 19.1633 101.319 19.0213 101.185 18.8554C100.919 18.5206 100.783 18.1215 100.703 17.7299C100.66 17.5328 100.639 17.3345 100.619 17.1364C100.609 17.0374 100.605 16.9368 100.598 16.8369L100.59 16.543C100.587 16.1481 100.604 15.7494 100.676 15.3503C100.747 14.9539 100.878 14.5481 101.145 14.1975C101.279 14.0241 101.454 13.8724 101.655 13.7668C101.855 13.6591 102.078 13.603 102.296 13.5815C102.734 13.542 103.153 13.624 103.546 13.7421C103.939 13.8621 104.31 14.0264 104.669 14.2075C105.027 14.3898 105.372 14.5926 105.708 14.8067C106.043 15.0205 106.367 15.2515 106.685 15.4892C106.843 15.6087 107 15.7302 107.155 15.8547L107.386 16.0438L107.5 16.1413L107.62 16.2472L107.031 16.817C106.758 16.5288 106.496 16.2283 106.243 15.9225C105.989 15.6168 105.749 15.299 105.519 14.9715C105.289 14.6442 105.075 14.3031 104.878 13.9478C104.682 13.5915 104.507 13.2184 104.371 12.8167C104.24 12.4156 104.139 11.9812 104.174 11.5028C104.193 11.2659 104.251 11.017 104.369 10.788C104.484 10.5588 104.655 10.3568 104.847 10.2038C105.039 10.0484 105.252 9.94097 105.463 9.85896C105.674 9.77616 105.887 9.72481 106.097 9.68551C106.308 9.64437 106.515 9.62551 106.722 9.61005C106.826 9.60272 106.932 9.60088 107.037 9.59617L107.337 9.59564C107.743 9.60298 108.155 9.63337 108.569 9.7256C108.979 9.81756 109.407 9.96848 109.771 10.2724C109.951 10.4238 110.106 10.6188 110.209 10.8365C110.313 11.0542 110.363 11.289 110.372 11.5138C110.39 11.9663 110.278 12.3792 110.136 12.7617C109.99 13.1448 109.806 13.5016 109.599 13.8417C109.392 14.1815 109.168 14.5061 108.931 14.8203C108.694 15.1339 108.442 15.4352 108.184 15.7289C107.925 16.0211 107.652 16.3059 107.374 16.5739L107.302 16.5055Z" fill="url(#paint17_linear_0_874)"/>
<path d="M161.84 29.0378C161.934 29.0482 162.034 29.0535 162.139 29.0535C162.244 29.0535 162.344 29.0535 162.439 29.0535C162.712 29.0535 162.946 28.9856 163.141 28.8494C163.335 28.7131 163.432 28.4302 163.432 28.0005V19.6058H168.92V29.038H169.803V31.8677H168.037V30.61H163.606V31.8677H161.84V29.0378ZM165.167 27.8742C165.167 28.3356 165.12 28.7231 165.025 29.0375H167.185V21.1773H165.167V27.8742Z" fill="white"/>
<path d="M170.355 22.2466C170.355 21.356 170.581 20.6719 171.034 20.1951C171.486 19.7185 172.137 19.4798 172.989 19.4798C173.84 19.4798 174.492 19.7185 174.944 20.1951C175.396 20.6719 175.622 21.356 175.622 22.2466V27.9688C175.622 28.8596 175.396 29.5437 174.944 30.0203C174.492 30.4971 173.84 30.7355 172.989 30.7355C172.137 30.7355 171.485 30.4971 171.034 30.0203C170.581 29.5437 170.355 28.8596 170.355 27.9688V22.2466ZM172.09 28.0785C172.09 28.4771 172.172 28.7574 172.335 28.9196C172.497 29.0823 172.716 29.1635 172.989 29.1635C173.262 29.1635 173.48 29.0823 173.643 28.9196C173.806 28.7574 173.888 28.4771 173.888 28.0785V22.1363C173.888 21.738 173.806 21.4577 173.643 21.2952C173.48 21.1328 173.262 21.0513 172.989 21.0513C172.716 21.0513 172.497 21.1328 172.335 21.2952C172.172 21.4577 172.09 21.738 172.09 22.1363V28.0785Z" fill="white"/>
<path d="M178.461 23.74H179.281C180.153 23.74 180.803 23.9706 181.229 24.4317C181.654 24.8931 181.867 25.5691 181.867 26.4596V27.8902C181.867 28.781 181.654 29.457 181.229 29.9181C180.803 30.3795 180.153 30.6098 179.281 30.6098H176.727V19.6056H181.315V21.1776H178.461V23.74ZM179.281 29.0378C179.554 29.0378 179.764 28.9647 179.912 28.8177C180.059 28.671 180.133 28.3985 180.133 28.0002V26.3496C180.133 25.9514 180.059 25.6789 179.912 25.5321C179.764 25.3854 179.554 25.3121 179.281 25.3121H178.461V29.0378H179.281Z" fill="white"/>
<path d="M188.489 30.6098H186.739L186.44 28.6133H184.31L184.011 30.6098H182.418L184.184 19.6056H186.723L188.489 30.6098ZM184.532 27.1196H186.203L185.367 21.5549L184.532 27.1196Z" fill="white"/>
<path d="M191.895 19.6056C192.799 19.6056 193.453 19.8155 193.858 20.2344C194.263 20.6536 194.465 21.2877 194.465 22.1366V22.5296C194.465 23.0955 194.376 23.5619 194.197 23.9287C194.018 24.2955 193.734 24.568 193.346 24.7461C193.819 24.9246 194.152 25.2151 194.347 25.6186C194.541 26.0221 194.639 26.5173 194.639 27.1042V28.0002C194.639 28.8491 194.418 29.4963 193.976 29.9417C193.535 30.3871 192.878 30.6098 192.005 30.6098H189.277V19.6056H191.895ZM191.012 21.1776V24.0859H191.69C192.016 24.0859 192.271 24.0023 192.455 23.8344C192.638 23.6669 192.731 23.3627 192.731 22.9228V22.3097C192.731 21.9115 192.659 21.6233 192.518 21.4449C192.376 21.2667 192.152 21.1776 191.847 21.1776H191.012ZM191.012 25.6576V29.0375H192.005C192.299 29.0375 192.523 28.9589 192.676 28.8017C192.828 28.6445 192.904 28.3615 192.904 27.9531V26.9941C192.904 26.4806 192.817 26.1295 192.644 25.9406C192.471 25.752 192.184 25.6576 191.785 25.6576H191.012Z" fill="white"/>
<path d="M197.935 26.2235L197.399 27.2296V30.6095H195.664V19.6053H197.399V24.4L199.701 19.6053H201.404L198.991 24.51L201.404 30.6095H199.622L197.935 26.2235Z" fill="white"/>
<path d="M203.973 30.6098H202.191V19.6056H203.737V26.1924L205.518 19.6056H207.694V30.6098H206.134V22.6396L203.973 30.6098Z" fill="white"/>
<path d="M210.77 29.0378C210.864 29.0482 210.964 29.0535 211.069 29.0535C211.174 29.0535 211.274 29.0535 211.369 29.0535C211.642 29.0535 211.876 28.9856 212.071 28.8494C212.265 28.7131 212.362 28.4302 212.362 28.0005V19.6058H217.85V29.038H218.733V31.8677H216.967V30.61H212.536V31.8677H210.77V29.0378ZM214.097 27.8742C214.097 28.3356 214.049 28.7231 213.955 29.0375H216.115V21.1773H214.097V27.8742Z" fill="white"/>
<path d="M224.315 21.1776H222.296V27.8745C222.296 28.4302 222.227 28.8861 222.091 29.2424C221.954 29.5987 221.77 29.8791 221.539 30.0834C221.308 30.2875 221.042 30.4319 220.743 30.5155C220.443 30.5996 220.13 30.6412 219.805 30.6412C219.647 30.6412 219.505 30.6412 219.379 30.6412C219.253 30.6412 219.116 30.6307 218.969 30.6098V29.0378C219.063 29.0482 219.163 29.0535 219.269 29.0535C219.373 29.0535 219.473 29.0535 219.568 29.0535C219.842 29.0535 220.075 28.9856 220.27 28.8494C220.464 28.7131 220.562 28.4302 220.562 28.0005V19.6058H226.049V30.61H224.315V21.1776Z" fill="white"/>
<path d="M226.996 30.6098C227.08 30.4002 227.133 30.1932 227.154 29.9888C227.175 29.7845 227.185 29.5463 227.185 29.2738V27.576C227.185 26.9999 227.267 26.5099 227.43 26.1062C227.593 25.703 227.895 25.4121 228.336 25.234C227.58 24.8779 227.201 24.1335 227.201 23.0014V22.1368C227.201 21.2879 227.404 20.6539 227.808 20.2346C228.213 19.8154 228.867 19.6058 229.772 19.6058H232.389V30.61H230.655V26.1298H230.055C229.656 26.1298 229.367 26.2346 229.188 26.4439C229.009 26.6538 228.92 27.0153 228.92 27.5289V29.2581C228.92 29.4782 228.917 29.6616 228.912 29.8086C228.907 29.9556 228.896 30.0758 228.881 30.1701C228.865 30.2642 228.846 30.3431 228.826 30.4057C228.804 30.4686 228.783 30.5369 228.762 30.61L226.996 30.6098ZM229.819 21.1776C229.514 21.1776 229.29 21.2667 229.148 21.4448C229.006 21.6233 228.935 21.9115 228.935 22.3097V23.3944C228.935 23.8346 229.027 24.1388 229.211 24.3062C229.395 24.4739 229.65 24.5577 229.976 24.5577H230.654V21.1779L229.819 21.1776Z" fill="white"/>
<path d="M239.375 22.3095C239.375 21.8169 239.293 21.4841 239.131 21.311C238.967 21.138 238.75 21.0516 238.476 21.0516C238.203 21.0516 237.985 21.133 237.822 21.2955C237.659 21.4579 237.577 21.7383 237.577 22.1365V23.3156H235.938V22.2466C235.938 21.356 236.156 20.6719 236.592 20.1951C237.028 19.7185 237.672 19.4798 238.524 19.4798C239.375 19.4798 240.019 19.7185 240.456 20.1951C240.892 20.6719 241.11 21.356 241.11 22.2466V22.5295C241.11 23.7033 240.705 24.4579 239.896 24.7933C240.337 24.9819 240.65 25.2727 240.834 25.6657C241.017 26.0587 241.11 26.5382 241.11 27.1041V27.9688C241.11 28.8596 240.892 29.5437 240.456 30.0203C240.019 30.4971 239.375 30.7355 238.524 30.7355C237.672 30.7355 237.028 30.4971 236.592 30.0203C236.156 29.5437 235.938 28.8596 235.938 27.9688V26.5854H237.577V28.0788C237.577 28.4773 237.659 28.7577 237.822 28.9198C237.985 29.0825 238.203 29.1638 238.476 29.1638C238.75 29.1638 238.967 29.0799 239.131 28.912C239.293 28.7446 239.375 28.4147 239.375 27.9219V27.0572C239.375 26.5437 239.286 26.1821 239.107 25.9723C238.928 25.7627 238.639 25.6579 238.239 25.6579H237.971V24.0858H238.334C238.66 24.0858 238.915 24.0023 239.099 23.8343C239.283 23.6669 239.375 23.3627 239.375 22.9228L239.375 22.3095Z" fill="white"/>
<path d="M241.582 29.0378C241.677 29.0482 241.776 29.0535 241.882 29.0535C241.986 29.0535 242.087 29.0535 242.182 29.0535C242.455 29.0535 242.688 28.9856 242.883 28.8494C243.077 28.7131 243.175 28.4302 243.175 28.0005V19.6058H248.662V29.038H249.545V31.8677H247.779V30.61H243.348V31.8677H241.582V29.0378ZM244.909 27.8742C244.909 28.3356 244.862 28.7231 244.767 29.0375H246.928V21.1773H244.909V27.8742Z" fill="white"/>
<path d="M250.098 22.2466C250.098 21.356 250.324 20.6719 250.776 20.1951C251.228 19.7185 251.88 19.4798 252.731 19.4798C253.582 19.4798 254.234 19.7185 254.686 20.1951C255.138 20.6719 255.364 21.356 255.364 22.2466V27.9688C255.364 28.8596 255.138 29.5437 254.686 30.0203C254.234 30.4971 253.582 30.7355 252.731 30.7355C251.88 30.7355 251.227 30.4971 250.776 30.0203C250.324 29.5437 250.098 28.8596 250.098 27.9688V22.2466ZM251.832 28.0785C251.832 28.4771 251.914 28.7574 252.077 28.9196C252.24 29.0823 252.458 29.1635 252.731 29.1635C253.004 29.1635 253.223 29.0823 253.385 28.9196C253.548 28.7574 253.63 28.4771 253.63 28.0785V22.1363C253.63 21.738 253.548 21.4577 253.385 21.2952C253.223 21.1328 253.004 21.0513 252.731 21.0513C252.458 21.0513 252.24 21.1328 252.077 21.2952C251.914 21.4577 251.832 21.738 251.832 22.1363V28.0785Z" fill="white"/>
<path d="M259.019 19.6056C259.892 19.6056 260.541 19.8362 260.967 20.2973C261.393 20.7587 261.605 21.4346 261.605 22.3252V23.7558C261.605 24.6466 261.393 25.3225 260.967 25.7837C260.541 26.2451 259.892 26.4754 259.019 26.4754H258.199V30.6098H256.465V19.6056H259.019ZM258.199 21.1776V24.9033H259.019C259.293 24.9033 259.503 24.8302 259.65 24.6832C259.797 24.5365 259.871 24.264 259.871 23.8658V22.2152C259.871 21.8169 259.797 21.5444 259.65 21.3977C259.502 21.251 259.293 21.1776 259.019 21.1776H258.199Z" fill="white"/>
<path d="M262.238 22.2466C262.238 21.356 262.464 20.6719 262.916 20.1951C263.368 19.7185 264.02 19.4798 264.872 19.4798C265.723 19.4798 266.375 19.7185 266.827 20.1951C267.279 20.6719 267.505 21.356 267.505 22.2466V27.9688C267.505 28.8596 267.279 29.5437 266.827 30.0203C266.375 30.4971 265.723 30.7355 264.872 30.7355C264.02 30.7355 263.368 30.4971 262.916 30.0203C262.464 29.5437 262.238 28.8596 262.238 27.9688V22.2466ZM263.973 28.0785C263.973 28.4771 264.054 28.7574 264.217 28.9196C264.38 29.0823 264.598 29.1635 264.872 29.1635C265.145 29.1635 265.363 29.0823 265.526 28.9196C265.689 28.7574 265.77 28.4771 265.77 28.0785V22.1363C265.77 21.738 265.689 21.4577 265.526 21.2952C265.363 21.1328 265.145 21.0513 264.872 21.0513C264.598 21.0513 264.38 21.1328 264.217 21.2952C264.054 21.4577 263.973 21.738 263.973 22.1363V28.0785Z" fill="white"/>
<path d="M271.227 19.6056C272.131 19.6056 272.785 19.8155 273.19 20.2344C273.595 20.6536 273.797 21.2877 273.797 22.1366V22.5296C273.797 23.0955 273.708 23.5619 273.529 23.9287C273.35 24.2955 273.066 24.568 272.678 24.7461C273.151 24.9246 273.484 25.2151 273.679 25.6186C273.873 26.0221 273.971 26.5173 273.971 27.1042V28.0002C273.971 28.8491 273.75 29.4963 273.308 29.9417C272.867 30.3871 272.21 30.6098 271.337 30.6098H268.609V19.6056H271.227ZM270.344 21.1776V24.0859H271.022C271.347 24.0859 271.603 24.0023 271.786 23.8344C271.97 23.6669 272.062 23.3627 272.062 22.9228V22.3097C272.062 21.9115 271.991 21.6233 271.85 21.4449C271.708 21.2667 271.484 21.1776 271.179 21.1776H270.344ZM270.344 25.6576V29.0375H271.337C271.631 29.0375 271.855 28.9589 272.007 28.8017C272.159 28.6445 272.236 28.3615 272.236 27.9531V26.9941C272.236 26.4806 272.149 26.1295 271.976 25.9406C271.802 25.752 271.516 25.6576 271.116 25.6576H270.344Z" fill="white"/>
<path d="M274.996 30.6098V19.6056H276.731V23.74H277.551C278.423 23.74 279.072 23.9706 279.498 24.4317C279.924 24.8931 280.137 25.5691 280.137 26.4596V27.8902C280.137 28.781 279.924 29.457 279.498 29.9181C279.072 30.3795 278.423 30.6098 277.551 30.6098H274.996ZM277.55 29.0378C277.824 29.0378 278.034 28.9647 278.181 28.8177C278.328 28.671 278.402 28.3985 278.402 28.0002V26.3496C278.402 25.9514 278.328 25.6789 278.181 25.5321C278.033 25.3854 277.824 25.3121 277.55 25.3121H276.73V29.0378H277.55Z" fill="white"/>
<path d="M280.609 30.6098C280.693 30.4002 280.746 30.1932 280.767 29.9888C280.788 29.7845 280.799 29.5463 280.799 29.2738V27.576C280.799 26.9999 280.88 26.5099 281.043 26.1062C281.206 25.703 281.508 25.4121 281.95 25.234C281.193 24.8779 280.815 24.1335 280.815 23.0014V22.1368C280.815 21.2879 281.017 20.6539 281.422 20.2346C281.826 19.8154 282.481 19.6058 283.385 19.6058H286.003V30.61H284.268V26.1298H283.669C283.269 26.1298 282.98 26.2346 282.801 26.4439C282.623 26.6538 282.533 27.0153 282.533 27.5289V29.2581C282.533 29.4782 282.531 29.6616 282.526 29.8086C282.52 29.9556 282.51 30.0758 282.494 30.1701C282.478 30.2642 282.46 30.3431 282.439 30.4057C282.418 30.4686 282.397 30.5369 282.376 30.61L280.609 30.6098ZM283.432 21.1776C283.127 21.1776 282.903 21.2667 282.762 21.4448C282.62 21.6233 282.549 21.9115 282.549 22.3097V23.3944C282.549 23.8346 282.641 24.1388 282.825 24.3062C283.008 24.4739 283.264 24.5577 283.589 24.5577H284.267V21.1779L283.432 21.1776Z" fill="white"/>
<path d="M164.254 49.4741H162.473V38.4699H164.018V45.0567L165.8 38.4699H167.976V49.4741H166.415V41.5039L164.254 49.4741Z" fill="white"/>
<path d="M176.692 45.3708V46.8328C176.692 47.7237 176.474 48.4077 176.038 48.8843C175.601 49.3612 174.957 49.5996 174.106 49.5996C173.254 49.5996 172.61 49.3612 172.174 48.8843C171.738 48.4077 171.52 47.7237 171.52 46.8328V41.1106C171.52 40.2201 171.738 39.536 172.174 39.0591C172.61 38.5826 173.254 38.3439 174.106 38.3439C174.957 38.3439 175.601 38.5826 176.038 39.0591C176.474 39.536 176.692 40.2201 176.692 41.1106V42.1796H175.052V41.0006C175.052 40.6024 174.97 40.322 174.807 40.1596C174.644 39.9971 174.426 39.9156 174.153 39.9156C173.88 39.9156 173.661 39.9971 173.499 40.1596C173.336 40.322 173.254 40.6024 173.254 41.0006V46.9429C173.254 47.3414 173.336 47.6189 173.499 47.7761C173.661 47.9335 173.88 48.0119 174.153 48.0119C174.426 48.0119 174.644 47.9333 174.807 47.7761C174.97 47.6189 175.052 47.3414 175.052 46.9429V45.3708H176.692Z" fill="white"/>
<path d="M179.531 49.4741H177.797V38.4699H183.268V49.4741H181.502V40.0419H179.531L179.531 49.4741Z" fill="white"/>
<path d="M184.371 41.1109C184.371 40.2204 184.597 39.5363 185.049 39.0594C185.501 38.5829 186.153 38.3442 187.004 38.3442C187.856 38.3442 188.508 38.5829 188.96 39.0594C189.412 39.5363 189.638 40.2204 189.638 41.1109V46.8331C189.638 47.724 189.412 48.4081 188.96 48.8846C188.508 49.3615 187.856 49.5999 187.004 49.5999C186.153 49.5999 185.501 49.3615 185.049 48.8846C184.597 48.4081 184.371 47.724 184.371 46.8331V41.1109ZM186.106 46.9429C186.106 47.3414 186.187 47.6218 186.35 47.784C186.513 47.9467 186.731 48.0279 187.005 48.0279C187.278 48.0279 187.496 47.9467 187.659 47.784C187.822 47.6218 187.904 47.3414 187.904 46.9429V41.0006C187.904 40.6024 187.822 40.3221 187.659 40.1596C187.496 39.9972 187.278 39.9157 187.005 39.9157C186.731 39.9157 186.513 39.9972 186.35 40.1596C186.187 40.3221 186.106 40.6024 186.106 41.0006V46.9429Z" fill="white"/>
<path d="M193.297 38.4699C194.169 38.4699 194.818 38.7005 195.244 39.1616C195.67 39.623 195.883 40.299 195.883 41.1895V42.6201C195.883 43.5109 195.67 44.1869 195.244 44.648C194.818 45.1094 194.169 45.3397 193.297 45.3397H192.477V49.4741H190.742V38.4699H193.297ZM192.477 40.0419V43.7677H193.297C193.57 43.7677 193.78 43.6946 193.927 43.5476C194.075 43.4008 194.148 43.1284 194.148 42.7301V41.0795C194.148 40.6812 194.075 40.4088 193.927 40.262C193.78 40.1153 193.57 40.0419 193.297 40.0419H192.477Z" fill="white"/>
<path d="M196.199 38.4699H201.561V40.0419H199.747V49.4741H198.013V40.0419H196.199V38.4699Z" fill="white"/>
<path d="M207.946 49.4741H206.196L205.897 47.4776H203.768L203.468 49.4741H201.875L203.641 38.4699H206.18L207.946 49.4741ZM203.989 45.984H205.66L204.824 40.4192L203.989 45.984Z" fill="white"/>
</g>
<defs>
<linearGradient id="paint0_linear_0_874" x1="7.60224" y1="13.7742" x2="10.8263" y2="13.7104" gradientUnits="userSpaceOnUse">
<stop stop-color="#2F9E4A"/>
<stop offset="1" stop-color="#91C140"/>
</linearGradient>
<linearGradient id="paint1_linear_0_874" x1="3.01432" y1="22.8811" x2="6.27638" y2="22.8166" gradientUnits="userSpaceOnUse">
<stop stop-color="#2F9E4A"/>
<stop offset="1" stop-color="#91C140"/>
</linearGradient>
<linearGradient id="paint2_linear_0_874" x1="0.465471" y1="32.8794" x2="5.27121" y2="32.7845" gradientUnits="userSpaceOnUse">
<stop stop-color="#2F9E4A"/>
<stop offset="1" stop-color="#91C140"/>
</linearGradient>
<linearGradient id="paint3_linear_0_874" x1="0.0826629" y1="43.2584" x2="8.14788" y2="43.0989" gradientUnits="userSpaceOnUse">
<stop stop-color="#2F9E4A"/>
<stop offset="1" stop-color="#91C140"/>
</linearGradient>
<linearGradient id="paint4_linear_0_874" x1="2.93857" y1="53.0058" x2="13.9552" y2="52.788" gradientUnits="userSpaceOnUse">
<stop stop-color="#2F9E4A"/>
<stop offset="1" stop-color="#91C140"/>
</linearGradient>
<linearGradient id="paint5_linear_0_874" x1="8.90778" y1="60.8776" x2="22.132" y2="60.6162" gradientUnits="userSpaceOnUse">
<stop stop-color="#2F9E4A"/>
<stop offset="1" stop-color="#91C140"/>
</linearGradient>
<linearGradient id="paint6_linear_0_874" x1="17.7255" y1="65.537" x2="31.7704" y2="65.2594" gradientUnits="userSpaceOnUse">
<stop stop-color="#2F9E4A"/>
<stop offset="1" stop-color="#91C140"/>
</linearGradient>
<linearGradient id="paint7_linear_0_874" x1="9.15016" y1="16.3751" x2="16.3136" y2="16.2336" gradientUnits="userSpaceOnUse">
<stop stop-color="#2F9E4A"/>
<stop offset="1" stop-color="#91C140"/>
</linearGradient>
<linearGradient id="paint8_linear_0_874" x1="5.8089" y1="24.7737" x2="12.5942" y2="24.6396" gradientUnits="userSpaceOnUse">
<stop stop-color="#2F9E4A"/>
<stop offset="1" stop-color="#91C140"/>
</linearGradient>
<linearGradient id="paint9_linear_0_874" x1="5.26604" y1="33.7663" x2="10.7723" y2="33.6574" gradientUnits="userSpaceOnUse">
<stop stop-color="#2F9E4A"/>
<stop offset="1" stop-color="#91C140"/>
</linearGradient>
<linearGradient id="paint10_linear_0_874" x1="7.21892" y1="42.3405" x2="11.2397" y2="42.261" gradientUnits="userSpaceOnUse">
<stop stop-color="#2F9E4A"/>
<stop offset="1" stop-color="#91C140"/>
</linearGradient>
<linearGradient id="paint11_linear_0_874" x1="11.1776" y1="49.8525" x2="15.3195" y2="49.7707" gradientUnits="userSpaceOnUse">
<stop stop-color="#2F9E4A"/>
<stop offset="1" stop-color="#91C140"/>
</linearGradient>
<linearGradient id="paint12_linear_0_874" x1="16.8582" y1="55.4916" x2="22.2519" y2="55.385" gradientUnits="userSpaceOnUse">
<stop stop-color="#2F9E4A"/>
<stop offset="1" stop-color="#91C140"/>
</linearGradient>
<linearGradient id="paint13_linear_0_874" x1="11.8641" y1="10.188" x2="19.956" y2="10.0281" gradientUnits="userSpaceOnUse">
<stop stop-color="#2F9E4A"/>
<stop offset="1" stop-color="#91C140"/>
</linearGradient>
<linearGradient id="paint14_linear_0_874" x1="23.5852" y1="58.3296" x2="31.6327" y2="58.1705" gradientUnits="userSpaceOnUse">
<stop stop-color="#2F9E4A"/>
<stop offset="1" stop-color="#91C140"/>
</linearGradient>
<linearGradient id="paint15_linear_0_874" x1="24.6601" y1="35.5143" x2="37.6665" y2="35.5143" gradientUnits="userSpaceOnUse">
<stop stop-color="#2F9E4A"/>
<stop offset="1" stop-color="#91C140"/>
</linearGradient>
<linearGradient id="paint16_linear_0_874" x1="43.9045" y1="25.1335" x2="36.3907" y2="25.1335" gradientUnits="userSpaceOnUse">
<stop stop-color="#2F9E4A"/>
<stop offset="1" stop-color="#91C140"/>
</linearGradient>
<linearGradient id="paint17_linear_0_874" x1="100.255" y1="16.5837" x2="114.415" y2="16.5837" gradientUnits="userSpaceOnUse">
<stop stop-color="#2F9E4A"/>
<stop offset="1" stop-color="#91C140"/>
</linearGradient>
<clipPath id="clip0_0_874">
<rect width="286" height="68" fill="white"/>
</clipPath>
</defs>
</svg>
