<svg width="286" height="68" viewBox="0 0 286 68" fill="none" xmlns="http://www.w3.org/2000/svg">
<g clip-path="url(#clip0_197_22470)">
<path d="M81.2146 47.8296V45.3921L84.6729 44.5796V22.664L81.2146 21.8515V19.6321L92.4049 19.4141V21.8515L88.9465 22.664V44.5796H97.2948L98.1098 39.9233H100.952V47.8296H81.2146Z" fill="#414042"/>
<path d="M102.979 47.8297V45.6105L106.438 44.5869V29.3725L102.979 28.5493V26.5122L110.513 26.3301V44.5869L113.554 45.6105V47.8297H102.979Z" fill="#414042"/>
<path d="M116.814 29.5601V27.1227L120.471 26.5082V24.0711C120.471 21.6009 121.123 19.6657 122.429 18.265C123.734 16.8649 125.592 16.1646 128.004 16.1646C128.731 16.1646 129.434 16.2143 130.114 16.3142C130.794 16.4137 131.365 16.53 131.828 16.6634C132.29 16.7965 132.699 16.9325 133.056 17.0724C133.413 17.212 133.677 17.3286 133.849 17.4214L134.106 17.5807V22.6442H131.264L130.648 19.4129C129.985 19.2816 129.177 19.2161 128.223 19.2161C126.871 19.2161 125.92 19.5654 125.37 20.2634C124.82 20.9619 124.545 21.963 124.545 23.267V26.508H129.932L129.793 29.5596H124.545V44.5981L128.62 45.6097V47.8292H117.012V45.6097L120.471 44.5981V29.5596H116.814V29.5601Z" fill="#414042"/>
<path d="M133.49 37.2877C133.49 35.1348 133.907 33.196 134.742 31.472C135.577 29.7483 136.756 28.3908 138.28 27.3999C139.804 26.4093 141.533 25.9138 143.468 25.9138C149.139 25.9138 151.975 29.0912 151.975 35.445C151.975 35.749 151.958 36.0791 151.925 36.4357C151.892 36.7923 151.856 37.0896 151.817 37.3273L151.778 37.6839H137.763C137.763 39.8973 138.306 41.6661 139.393 42.9903C140.479 44.3142 141.904 44.976 143.666 44.976C144.868 44.976 146.036 44.7884 147.171 44.4129C148.307 44.0375 149.145 43.6654 149.686 43.2963L150.478 42.7432L151.895 44.8377C151.79 44.9307 151.645 45.0538 151.46 45.2063C151.276 45.3593 150.876 45.6284 150.263 46.0135C149.65 46.3989 149.026 46.7411 148.394 47.0398C147.76 47.339 146.972 47.6112 146.029 47.857C145.086 48.1028 144.159 48.2256 143.249 48.2256C140.056 48.2256 137.631 47.2581 135.974 45.3226C134.318 43.3877 133.49 40.7092 133.49 37.2877ZM137.922 34.6326H147.701C147.701 32.9919 147.343 31.6701 146.628 30.6676C145.912 29.6649 144.786 29.1635 143.249 29.1635C141.685 29.1635 140.436 29.678 139.502 30.7067C138.568 31.7353 138.041 33.0443 137.922 34.6326Z" fill="#414042"/>
<path d="M10.77 13.248C10.6489 14.4179 10.2473 15.6074 9.8799 16.521C9.70066 16.979 9.51827 17.362 9.39632 17.6416C9.27096 17.917 9.18397 18.0778 9.18397 18.0778C9.18397 18.0778 8.78949 17.7941 8.38739 17.2122C7.98187 16.6261 7.5795 15.735 7.62313 14.5083C7.65992 13.28 8.18896 11.9802 8.72983 11.0055C8.86702 10.7653 9.00263 10.5405 9.12852 10.3448C9.25441 10.1451 9.3795 9.97716 9.48016 9.83699C9.68752 9.55664 9.81919 9.39551 9.81919 9.39551C9.81919 9.39551 10.1333 9.77175 10.3987 10.4459C10.5346 10.7828 10.6513 11.1905 10.7267 11.6598C10.8063 12.1335 10.8255 12.6596 10.77 13.248Z" fill="url(#paint0_linear_197_22470)"/>
<path d="M6.15774 21.9272C6.3785 23.204 6.28047 24.5853 6.15511 25.666C6.12646 25.9385 6.09256 26.1895 6.0555 26.4149C6.02423 26.6394 5.99505 26.8398 5.96615 27.0028C5.90938 27.3345 5.86339 27.5297 5.86339 27.5297C5.86339 27.5297 5.36141 27.3479 4.76457 26.8461C4.46864 26.5972 4.14485 26.2634 3.85865 25.8253C3.5806 25.3936 3.31989 24.8507 3.17376 24.1949C2.86259 22.8739 3.04367 21.3396 3.33119 20.1629C3.46864 19.5713 3.64104 19.0706 3.76956 18.7171C3.89597 18.3619 3.99295 18.157 3.99295 18.157C3.99295 18.157 4.10517 18.2319 4.27626 18.3841C4.44761 18.5366 4.68073 18.7701 4.92698 19.0826C5.17035 19.3952 5.42501 19.7869 5.64315 20.2619C5.86076 20.7341 6.05235 21.2913 6.15774 21.9272Z" fill="url(#paint1_linear_197_22470)"/>
<path d="M3.90541 31.54C4.50226 32.8359 4.80765 34.3251 5.04471 35.4966C5.10331 35.7908 5.14011 36.0669 5.184 36.3117C5.23104 36.5572 5.26599 36.7757 5.29306 36.9578C5.34694 37.3209 5.36639 37.5394 5.36639 37.5394C5.36639 37.5394 5.22026 37.5368 4.97638 37.4959C4.7317 37.4569 4.38873 37.3793 3.99398 37.2216C3.59871 37.0633 3.15246 36.8281 2.70042 36.4639C2.25942 36.0965 1.83025 35.6027 1.44707 34.9356C0.705934 33.6004 0.439179 31.8534 0.42052 30.4878C0.407905 30.1456 0.421571 29.8275 0.435237 29.5414C0.451531 29.2556 0.4673 28.9988 0.488851 28.7879C0.537471 28.37 0.581098 28.1208 0.581098 28.1208C0.581098 28.1208 1.13747 28.315 1.81605 28.849C2.15219 29.1162 2.53616 29.467 2.89727 29.9114C3.2539 30.3539 3.61317 30.895 3.90541 31.54Z" fill="url(#paint2_linear_197_22470)"/>
<path d="M4.60027 41.5061C5.66834 42.6269 6.50119 44.0368 7.16532 45.149C7.24259 45.2918 7.3188 45.427 7.3916 45.5574C7.46545 45.6879 7.53615 45.8118 7.60343 45.9303C7.73484 46.1637 7.84522 46.3741 7.93589 46.5512C8.11802 46.9057 8.22735 47.1161 8.22735 47.1161C8.22735 47.1161 8.07623 47.1667 7.81079 47.2154C7.54377 47.2668 7.15954 47.3158 6.69673 47.3027C5.78976 47.2668 4.51512 46.9924 3.28595 45.8999C2.0594 44.8086 1.14323 43.1069 0.647307 41.6664C0.511433 41.3088 0.423391 40.9627 0.334298 40.6519C0.249672 40.3393 0.178975 40.0642 0.12799 39.8316C0.0383706 39.3657 0 39.0791 0 39.0791C0 39.0791 0.159264 39.0846 0.428122 39.1286C0.698293 39.1776 1.07858 39.268 1.51827 39.4299C1.95059 39.5963 2.47438 39.8331 2.99606 40.1701C3.25835 40.3399 3.52327 40.5343 3.78765 40.7562C4.06229 40.975 4.33536 41.222 4.60027 41.5061Z" fill="url(#paint3_linear_197_22470)"/>
<path d="M8.39622 50.7244C8.58019 50.8227 8.75312 50.9306 8.93525 51.037C9.11659 51.145 9.29399 51.2574 9.46771 51.3747C9.81488 51.6092 10.1445 51.8584 10.4764 52.1036C10.6388 52.2283 10.7978 52.3536 10.9513 52.4801C11.0278 52.5417 11.1027 52.608 11.177 52.6724C11.2561 52.7309 11.3316 52.7953 11.4075 52.8543C11.7063 53.0993 11.9844 53.3437 12.2406 53.5764C12.7739 54.0205 13.1904 54.4454 13.514 54.7276C13.8265 55.0161 14.002 55.2008 14.002 55.2008C14.002 55.2008 13.8656 55.3069 13.6141 55.456C13.36 55.6014 12.9894 55.7851 12.5119 55.9349C12.0357 56.0845 11.4435 56.2056 10.7789 56.1883C10.1113 56.1752 9.34025 56.0507 8.52973 55.6962C6.89136 55.0006 5.37913 53.5523 4.39201 52.2391C4.13682 51.9142 3.92946 51.5901 3.7355 51.3019C3.54654 51.0113 3.37729 50.7543 3.25745 50.5298C3.00778 50.0794 2.87427 49.8006 2.87427 49.8006C2.87427 49.8006 3.03853 49.7503 3.33156 49.705C3.62512 49.6633 4.04536 49.624 4.55075 49.645C4.80541 49.6536 5.07637 49.679 5.37256 49.7181C5.66875 49.7597 5.98281 49.8192 6.3087 49.9028C6.63301 49.9845 6.97309 50.0935 7.31501 50.2337C7.66849 50.3658 8.03196 50.5285 8.39622 50.7244Z" fill="url(#paint4_linear_197_22470)"/>
<path d="M14.8488 58.3086C15.736 58.4566 16.608 58.7129 17.4469 58.9809C17.8559 59.1255 18.2693 59.2594 18.6559 59.4006C18.8493 59.4764 19.0367 59.5487 19.2212 59.6176C19.4073 59.681 19.5881 59.7481 19.7605 59.8143C20.4448 60.0929 21.0469 60.3082 21.4619 60.4948C21.669 60.5886 21.8419 60.6436 21.9563 60.696C22.0716 60.7431 22.1347 60.7673 22.1347 60.7673C22.1347 60.7673 22.0414 60.9292 21.8422 61.1773C21.6438 61.4244 21.3408 61.7592 20.9153 62.1011C20.4942 62.4294 19.9518 62.7629 19.2609 63.0124C18.9113 63.1418 18.536 63.2317 18.1234 63.2906C17.7121 63.3456 17.2527 63.3805 16.771 63.3456C16.2903 63.309 15.7917 63.2298 15.2958 63.1122C14.8083 62.9815 14.3189 62.8188 13.839 62.6304C13.3686 62.4291 12.9126 62.203 12.4743 61.9704C12.043 61.7306 11.6448 61.4705 11.2687 61.2179C11.1744 61.1561 11.0835 61.0924 10.9944 61.0342C10.9071 60.9672 10.822 60.9027 10.7386 60.839C10.5733 60.7135 10.4162 60.5901 10.2695 60.4725C9.97438 60.233 9.71394 60.0195 9.51394 59.8235C9.10605 59.4423 8.87451 59.201 8.87451 59.201C8.87451 59.201 9.02852 59.0938 9.31604 58.951C9.60145 58.809 10.0222 58.6358 10.5494 58.4886C10.813 58.4118 11.1013 58.3476 11.4162 58.2934C11.7342 58.236 12.0758 58.1941 12.4369 58.1697C12.7999 58.1462 13.1794 58.1469 13.581 58.1697C13.9867 58.1868 14.4112 58.2305 14.8488 58.3086Z" fill="url(#paint5_linear_197_22470)"/>
<path d="M23.5135 63.2947C23.9905 63.1904 24.4712 63.1189 24.9479 63.0701C25.4283 63.0012 25.9069 62.9585 26.3737 62.9336C26.8444 62.8841 27.3022 62.8605 27.7406 62.8464C28.1837 62.8107 28.6049 62.788 28.9989 62.7801C29.7873 62.7264 30.4636 62.7238 30.9492 62.6855C31.4315 62.6645 31.7203 62.6682 31.7203 62.6682C31.7203 62.6682 31.698 62.8676 31.6134 63.1951C31.5287 63.5216 31.3787 63.9769 31.1088 64.4936C30.9747 64.7512 30.807 65.0247 30.6044 65.3027C30.503 65.4418 30.3887 65.583 30.2678 65.7224C30.1448 65.8566 30.012 65.9933 29.8688 66.1248C29.5779 66.3929 29.241 66.6517 28.8494 66.8972C28.458 67.1412 28.0149 67.3353 27.5101 67.5171C27.0034 67.7063 26.4696 67.8116 25.914 67.896C25.355 67.989 24.79 68.0047 24.2204 67.9998C23.6493 68.0066 23.0927 67.9458 22.5476 67.8727C22.0013 67.809 21.4872 67.6906 21.0013 67.5714C20.7592 67.5148 20.5245 67.4548 20.3009 67.3911C20.0811 67.3204 19.8714 67.2517 19.6735 67.182C19.2772 67.0445 18.9235 66.9224 18.6417 66.7987C18.0748 66.548 17.7432 66.3816 17.7432 66.3816C17.7432 66.3816 17.8612 66.2179 18.1053 65.9747C18.3474 65.7292 18.715 65.4017 19.1999 65.0663C19.6822 64.7373 20.2977 64.3715 21.016 64.0623C21.7298 63.7658 22.5723 63.4707 23.5135 63.2947Z" fill="url(#paint6_linear_197_22470)"/>
<path d="M12.6366 14.6266C11.6093 15.0335 10.7244 15.9018 10.1147 16.6627C9.81823 17.0468 9.5746 17.3942 9.42349 17.6565C9.26869 17.9169 9.18433 18.0778 9.18433 18.0778C9.18459 18.0752 9.64241 18.2434 10.3326 18.2772C11.0224 18.3123 11.9483 18.2284 12.9005 17.7775C13.8466 17.3185 14.6816 16.6147 15.2897 16.0278C15.4432 15.8806 15.5807 15.7438 15.701 15.6152C15.823 15.4889 15.9326 15.3807 16.019 15.2832C16.1933 15.0941 16.2889 14.9738 16.2889 14.9738C16.2889 14.9738 15.8905 14.6995 15.2364 14.5072C14.9105 14.4123 14.5121 14.3358 14.0716 14.339C13.639 14.3447 13.1436 14.4168 12.6366 14.6266Z" fill="url(#paint7_linear_197_22470)"/>
<path d="M8.5445 22.8312C7.57682 23.5776 6.87327 24.7593 6.4483 25.747C6.34265 25.9959 6.25356 26.2312 6.17577 26.4435C6.10165 26.6578 6.0462 26.8503 5.99942 27.0096C5.90638 27.3316 5.86328 27.5295 5.86328 27.5295C5.86328 27.5295 6.3981 27.5661 7.14607 27.4006C7.52137 27.317 7.94528 27.1854 8.38681 26.9774C8.83753 26.771 9.28563 26.488 9.73346 26.1125C10.6134 25.348 11.2948 24.3411 11.7795 23.5197C12.0173 23.1089 12.2128 22.7476 12.3435 22.488C12.4675 22.2241 12.5435 22.0682 12.5435 22.0682C12.5435 22.0682 12.416 22.0263 12.1936 21.9846C11.9703 21.9419 11.6541 21.8984 11.2788 21.9029C10.903 21.9029 10.462 21.9524 9.99285 22.0876C9.52189 22.2252 9.03385 22.462 8.5445 22.8312Z" fill="url(#paint8_linear_197_22470)"/>
<path d="M6.68367 31.7907C5.87815 32.8497 5.48131 34.3083 5.37592 35.4842C5.34859 35.7776 5.32257 36.0556 5.31889 36.3037C5.31836 36.55 5.32309 36.7711 5.33019 36.9525C5.34464 37.3208 5.36672 37.5393 5.36672 37.5393C5.36672 37.5393 5.50838 37.5037 5.73965 37.4089C5.97303 37.3172 6.29418 37.1676 6.65398 36.9509C7.01429 36.735 7.4135 36.4491 7.79826 36.0912C8.19274 35.7336 8.59038 35.3005 8.91968 34.7833C9.60457 33.7515 10.0117 32.5529 10.2939 31.5863C10.3581 31.345 10.4224 31.1189 10.4734 30.9166C10.5247 30.711 10.5615 30.5307 10.5959 30.3782C10.6671 30.0772 10.6968 29.8906 10.6968 29.8906C10.6968 29.8906 10.1131 29.8516 9.31259 30.0581C8.90759 30.161 8.46318 30.3305 8.00509 30.6059C7.54044 30.8792 7.09287 31.2614 6.68367 31.7907Z" fill="url(#paint9_linear_197_22470)"/>
<path d="M7.54161 40.7639C7.08037 42.1313 7.18524 43.7736 7.4993 45.0139C7.53583 45.1709 7.56868 45.3215 7.60889 45.4633C7.65488 45.606 7.69772 45.7394 7.73688 45.8683C7.82098 46.1235 7.90245 46.3465 7.97105 46.5346C8.03859 46.7245 8.11034 46.8655 8.15528 46.9632C8.20101 47.0633 8.22703 47.1162 8.22703 47.1162C8.22703 47.1162 8.3587 47.0266 8.56106 46.8456C8.76343 46.6653 9.03518 46.3952 9.32401 46.0452C9.91849 45.3294 10.5471 44.3 10.8843 42.9876C11.2236 41.6768 11.2099 40.3235 11.1758 39.2731C11.159 39.0111 11.1608 38.7648 11.1414 38.5487C11.1277 38.3299 11.104 38.1394 11.0872 37.9799C11.0672 37.6602 11.0381 37.4695 11.0381 37.4695C11.0381 37.4695 10.8848 37.5104 10.6352 37.6062C10.386 37.7045 10.0399 37.8604 9.65804 38.0983C9.26934 38.3386 8.87407 38.6592 8.49194 39.0955C8.30272 39.3106 8.11901 39.5571 7.95265 39.8346C7.79707 40.1136 7.65725 40.4184 7.54161 40.7639Z" fill="url(#paint10_linear_197_22470)"/>
<path d="M11.1666 48.9557C11.1648 49.1535 11.164 49.3511 11.1848 49.5444C11.205 49.7412 11.2321 49.9372 11.2697 50.1331C11.3377 50.5241 11.4342 50.916 11.5698 51.286C11.6339 51.4725 11.7049 51.657 11.7753 51.8372C11.8145 51.9261 11.8505 52.0183 11.8886 52.1079C11.9301 52.1933 11.9714 52.2761 12.0137 52.3633C12.1819 52.6992 12.359 53.0218 12.5346 53.3186C12.9107 53.8893 13.257 54.3829 13.544 54.6973C13.8239 55.0188 14.0021 55.2009 14.0021 55.2009C14.0021 55.2009 14.1062 55.0625 14.2502 54.8044C14.3961 54.5477 14.5821 54.1714 14.7569 53.7079C14.933 53.2437 15.0881 52.6992 15.2032 52.0767C15.3159 51.4558 15.3595 50.7869 15.3212 50.059C15.2302 48.614 14.7821 47.2485 14.4069 46.1863C14.3062 45.9274 14.2239 45.6767 14.1343 45.4624C14.0484 45.2447 13.9582 45.061 13.898 44.8991C13.7687 44.581 13.677 44.3992 13.677 44.3992C13.677 44.3992 13.5325 44.4922 13.3086 44.6764C13.0844 44.859 12.7816 45.1344 12.4691 45.5098C12.3141 45.6943 12.1511 45.9078 12.0026 46.1439C11.8568 46.3765 11.7188 46.6385 11.5955 46.9233C11.4728 47.21 11.3677 47.527 11.2867 47.8673C11.2166 48.2024 11.1737 48.5648 11.1666 48.9557Z" fill="url(#paint11_linear_197_22470)"/>
<path d="M17.0773 55.5482C17.3254 56.3345 17.7475 57.0974 18.2676 57.7558C18.5194 58.098 18.8079 58.3959 19.0936 58.6807C19.2368 58.8225 19.3793 58.96 19.5257 59.09C19.6728 59.2128 19.82 59.3313 19.9627 59.4437C20.5325 59.9087 21.0878 60.2216 21.4818 60.4487C21.6776 60.5679 21.8471 60.6361 21.9588 60.69C22.0715 60.7403 22.1343 60.7676 22.1343 60.7676C22.1343 60.7676 22.1832 60.5873 22.2276 60.2745C22.2757 59.9619 22.3191 59.5152 22.3186 58.9875C22.323 58.4483 22.287 57.8292 22.1735 57.1779C22.1144 56.8582 22.0468 56.5152 21.9525 56.1678C21.8605 55.8186 21.7385 55.4843 21.5985 55.1287C21.0255 53.7377 20.1701 52.5377 19.4686 51.6184C19.4234 51.5618 19.378 51.5068 19.3343 51.4509C19.2926 51.3954 19.2502 51.343 19.2111 51.2893C19.1283 51.184 19.0497 51.0836 18.9727 50.9903C18.8203 50.8041 18.6747 50.6505 18.5656 50.5077C18.3399 50.236 18.1898 50.0864 18.1898 50.0864C18.1898 50.0864 18.0715 50.23 17.9002 50.4889C17.7296 50.7498 17.5067 51.1305 17.3033 51.6147C17.2035 51.8542 17.1065 52.1243 17.0268 52.4136C16.9517 52.6991 16.8918 53.0091 16.8581 53.3408C16.8268 53.6735 16.8137 54.0317 16.8476 54.398C16.8841 54.7635 16.9569 55.1494 17.0773 55.5482Z" fill="url(#paint12_linear_197_22470)"/>
<path d="M14.4645 8.54734C13.2916 9.63073 12.6369 10.9709 12.3058 11.982C12.2238 12.2395 12.1552 12.4722 12.1053 12.6839C12.0566 12.8945 12.0227 13.0792 11.9965 13.2325C11.9468 13.5357 11.9329 13.7133 11.9329 13.7133C11.9329 13.7133 12.099 13.6462 12.3723 13.5105C12.5082 13.4416 12.6706 13.3598 12.8553 13.2579C13.0409 13.1605 13.2503 13.047 13.4695 12.9199C14.3589 12.4088 15.4708 11.693 16.4948 10.75C17.5137 9.80077 18.2995 8.76611 18.9048 7.94473C19.0556 7.74115 19.1896 7.54517 19.3092 7.37251C19.4317 7.20351 19.5363 7.05627 19.6214 6.92762C19.7938 6.67322 19.8861 6.51575 19.8861 6.51575C19.8861 6.51575 19.7105 6.50527 19.3988 6.51392C19.2433 6.51994 19.0525 6.52885 18.8335 6.54693C18.6188 6.57575 18.3749 6.61584 18.1071 6.67086C17.8377 6.72221 17.5544 6.80238 17.2559 6.9043C17.105 6.95461 16.951 7.00806 16.7938 7.06701C16.6414 7.13513 16.4853 7.20535 16.3271 7.28133C16.1683 7.35705 16.0086 7.43958 15.8475 7.52604C15.6913 7.62194 15.5355 7.72019 15.377 7.82473C15.2225 7.93267 15.0614 8.03905 14.9108 8.16271C14.7602 8.28245 14.6109 8.41214 14.4645 8.54734Z" fill="url(#paint13_linear_197_22470)"/>
<path d="M24.6923 59.6711C24.9604 60.0044 25.2695 60.3241 25.6075 60.622C25.9494 60.8947 26.3176 61.1523 26.6992 61.3823C27.0855 61.5948 27.4826 61.7863 27.8776 61.9519C28.2761 62.0965 28.669 62.2225 29.0427 62.3305C29.7933 62.5039 30.4669 62.6171 30.9478 62.6344C31.4314 62.6677 31.72 62.6677 31.72 62.6677C31.72 62.6677 31.6889 62.4699 31.598 62.139C31.5066 61.8104 31.356 61.3524 31.1331 60.8326C31.0196 60.5706 30.8903 60.2952 30.741 60.0112C30.6669 59.8739 30.588 59.7309 30.5039 59.5873C30.4193 59.4377 30.3323 59.2868 30.2377 59.1377C30.0527 58.8382 29.8466 58.5388 29.6201 58.2521C29.3941 57.9637 29.1491 57.654 28.8818 57.3794C27.8109 56.2551 26.6046 55.4426 25.6408 54.8217C25.5194 54.7449 25.4006 54.6763 25.2889 54.61C25.1788 54.5351 25.0711 54.468 24.9699 54.4072C24.7672 54.2801 24.582 54.1887 24.4308 54.0957C24.1297 53.9128 23.941 53.824 23.941 53.824C23.941 53.824 23.87 54.0076 23.7854 54.333C23.7015 54.6545 23.6043 55.1136 23.5609 55.6727C23.5173 56.2349 23.5418 56.8666 23.7002 57.5589C23.8558 58.2618 24.168 58.9614 24.6923 59.6711Z" fill="url(#paint14_linear_197_22470)"/>
<path d="M33.3222 65.0313C33.3222 65.0313 33.8032 65.0504 34.7051 65.0889C34.9299 65.0991 35.1816 65.1107 35.4586 65.1238C35.7346 65.1193 36.0363 65.1133 36.3619 65.1078C36.686 65.101 37.0347 65.0939 37.4058 65.0871C37.4967 65.0853 37.5885 65.0845 37.682 65.0826C37.7785 65.0758 37.8762 65.0695 37.9756 65.0617C38.1743 65.0478 38.3782 65.0331 38.5887 65.0182C39.009 64.9909 39.4518 64.9598 39.9036 64.8953C40.3585 64.8308 40.8329 64.7997 41.3264 64.7012C42.3149 64.5366 43.3772 64.3362 44.4923 64.0454C45.0479 63.8913 45.625 63.7527 46.2024 63.5499C46.4926 63.4558 46.7864 63.3599 47.0849 63.2633C47.3774 63.1517 47.6744 63.0395 47.9761 62.9253C48.5811 62.7076 49.1806 62.4314 49.8008 62.1702C50.112 62.0413 50.4119 61.8775 50.7228 61.7311C51.0308 61.577 51.3488 61.4368 51.6529 61.26C52.8978 60.6086 54.1312 59.8197 55.3601 58.9488C56.5788 58.0604 57.7817 57.0713 58.9352 55.9677C60.0931 54.8697 61.1701 53.6293 62.1819 52.3033C63.1814 50.9689 64.1344 49.552 64.9354 48.0203C66.5515 44.9688 67.7391 41.5635 68.281 37.9913C68.5549 36.2123 68.6626 34.3704 68.6382 32.5728L68.6182 31.857C68.6122 31.6183 68.6082 31.3754 68.5851 31.1585L68.4763 29.8209L68.2994 28.4598C68.2298 28.0068 68.1386 27.5585 68.06 27.1074C67.362 23.5106 66.0074 20.0505 64.1509 16.9505C63.2169 15.4028 62.1501 13.9529 60.9927 12.6064C59.8327 11.2637 58.5696 10.0364 57.2461 8.92238C55.9262 7.80336 54.5123 6.84258 53.0813 5.98399C51.6447 5.1351 50.1798 4.39126 48.6931 3.80778C45.723 2.63557 42.7433 1.93968 39.9462 1.66196C39.2484 1.5713 38.5588 1.55925 37.8854 1.51419L37.6576 1.50292L37.4006 1.50371C37.2303 1.50371 37.0607 1.50449 36.892 1.50449C36.5548 1.50449 36.2218 1.50371 35.8936 1.50292C35.5596 1.49218 35.2497 1.51681 34.9404 1.53672C34.6308 1.55506 34.3249 1.5734 34.0234 1.59148C33.4197 1.60982 32.8305 1.70833 32.2586 1.77619C31.9729 1.81287 31.6912 1.84851 31.4142 1.88335C31.139 1.92763 30.8715 1.98711 30.6068 2.03662C30.3417 2.08798 30.0817 2.13854 29.8263 2.18728C29.5711 2.23758 29.3167 2.27348 29.0762 2.34317C28.1078 2.59234 27.2058 2.79854 26.4208 3.08071C26.0237 3.21041 25.6484 3.33329 25.2944 3.44883C24.9482 3.58507 24.6229 3.7111 24.3204 3.82952C24.0173 3.94795 23.7359 4.05668 23.4791 4.15703C23.225 4.26498 23.0005 4.37659 22.7955 4.4696C21.9766 4.84506 21.5396 5.04601 21.5396 5.04601C21.5396 5.04601 21.9501 4.79423 22.7201 4.32393C22.9138 4.20917 23.1275 4.07136 23.37 3.93642C23.6168 3.80778 23.8865 3.66839 24.1771 3.51669C24.4691 3.36525 24.7834 3.20229 25.1183 3.02805C25.4647 2.87766 25.8326 2.7181 26.221 2.54911C26.9927 2.18885 27.8852 1.89436 28.8534 1.54694C29.3383 1.37637 29.8586 1.25244 30.3932 1.09943C30.6615 1.02791 30.9333 0.945898 31.2132 0.878824C31.4946 0.820397 31.7816 0.761446 32.0731 0.701185C32.6584 0.585379 33.2549 0.438132 33.8944 0.368439C34.2116 0.324946 34.5341 0.280405 34.8607 0.235864C35.1882 0.190799 35.523 0.140232 35.8468 0.126346C36.1748 0.103551 36.5075 0.081019 36.8431 0.0574386C37.0113 0.0469584 37.1808 0.0364782 37.3509 0.025212L37.6069 0.00949166L37.6387 0.00660961L37.6965 0.00477557H37.7624L37.8946 0.00398956C38.5998 0.00844364 39.3243 -0.0214249 40.0621 0.029404C41.5409 0.0692288 43.0749 0.265209 44.6526 0.533502C46.2295 0.815681 47.8284 1.26607 49.4434 1.81575C52.6579 2.9505 55.9052 4.63571 58.8421 6.95813C60.3141 8.11121 61.7081 9.41495 63.0001 10.8458C64.2931 12.2739 65.4818 13.8329 66.517 15.5076C68.5993 18.8518 70.0881 22.6357 70.8655 26.5616C70.9499 27.0555 71.0463 27.5465 71.1199 28.0409L71.3065 29.5286L71.4222 31.0516C71.4458 31.311 71.4479 31.5463 71.4532 31.7847L71.4692 32.5005C71.4968 34.5192 71.3339 36.4822 71.0143 38.4294C70.7023 40.3724 70.1862 42.2641 69.5315 44.0738C68.8766 45.8858 68.076 47.6171 67.148 49.2389C65.2955 52.4881 62.9267 55.2671 60.3788 57.5235C59.0942 58.6425 57.7806 59.6562 56.4327 60.5167C55.0752 61.3624 53.7259 62.1131 52.3772 62.7199C49.6926 63.9626 47.0655 64.681 44.7241 65.1044C43.5504 65.3127 42.4447 65.4492 41.419 65.5155C40.9099 65.5684 40.409 65.5571 39.9391 65.5799C39.4655 65.6025 39.0229 65.593 38.6024 65.5807C38.3919 65.577 38.1877 65.5721 37.9885 65.5684C37.8889 65.5658 37.7908 65.5642 37.6941 65.5626C37.5945 65.5548 37.4965 65.5469 37.4 65.5398C37.0232 65.5068 36.6699 65.4764 36.3409 65.4476C36.0142 65.4188 35.7115 65.3908 35.4342 65.3659C35.1603 65.3232 34.912 65.2846 34.6886 65.2501C33.7977 65.107 33.3222 65.0313 33.3222 65.0313Z" fill="#414042"/>
<path fill-rule="evenodd" clip-rule="evenodd" d="M34.5439 44.2476C34.8769 37.9904 32.5565 31.8812 28.1494 27.4127C33.5263 30.6768 36.0193 35.9638 35.6288 43.2687C35.4574 44.9574 36.5591 46.2742 37.668 47.5596C34.7786 44.2085 42.4522 24.7966 24.6616 23.4688C26.489 25.2533 26.9615 28.3769 26.0798 32.8401C25.5273 35.4937 26.1357 38.2553 27.7512 40.4333C29.3673 42.6103 31.8382 43.9976 34.5439 44.2476Z" fill="url(#paint15_linear_197_22470)"/>
<path fill-rule="evenodd" clip-rule="evenodd" d="M38.2282 30.0274C38.0366 26.4306 38.8866 22.5037 41.419 19.9373C38.3291 21.8122 37.3806 25.2655 37.604 29.4646C37.7031 30.4338 37.1875 32.321 36.8598 32.174C36.8598 30.2546 33.6837 18.8487 43.9071 18.085C42.8566 19.111 42.6653 20.4027 42.0729 22.8888C41.6545 24.6453 42.1667 25.9655 41.3247 27.7066C40.6474 29.1075 39.7833 29.8828 38.2282 30.0274Z" fill="url(#paint16_linear_197_22470)"/>
<path d="M36.3626 20.931C36.3723 19.6472 36.4178 18.618 36.5006 17.8446C36.5934 16.9719 36.8168 16.3116 37.1721 15.8649C37.5258 15.4192 38.0575 15.1221 38.7658 14.9733C39.4741 14.8253 40.4246 14.7131 41.6186 14.639V13.3562H26.5166V14.639C27.6717 14.7131 28.5947 14.8253 29.2848 14.9733C29.975 15.1221 30.4964 15.4192 30.8512 15.8649C31.2054 16.3116 31.4288 16.9719 31.5229 17.8446C31.6149 18.7189 31.6627 19.9173 31.6627 21.4422V23.7976C32.7705 24.7435 34.3358 26.2683 35.525 28.1225C34.7529 23.9336 36.3626 20.931 36.3626 20.931Z" fill="#414042"/>
<path d="M52.8004 41.6743C51.9426 44.2391 51.0472 46.06 50.1161 47.139C49.4816 47.8079 48.5678 48.2451 47.3752 48.4487C46.9261 48.5255 46.4562 48.5839 45.9757 48.6308C45.8798 48.6421 45.7752 48.6523 45.6732 48.662C45.5944 48.668 45.5171 48.6759 45.4378 48.6819C44.9079 48.7246 44.3105 48.7516 43.6167 48.755C43.5836 48.755 43.5539 48.7534 43.5208 48.7534C43.5003 48.7534 43.4806 48.755 43.4606 48.755C43.4264 48.755 43.3957 48.7524 43.3621 48.7524C34.0369 48.733 34.8829 45.5234 34.8829 45.5234C34.8829 45.5234 33.3576 45.1674 32.1137 44.8268C32.0911 45.3102 32.0606 45.7385 32.0214 46.1061C31.9284 46.9807 31.704 47.6399 31.3499 48.0866C30.9952 48.5326 30.4737 48.8305 29.7838 48.9785C29.094 49.1281 28.1707 49.2387 27.0154 49.3125V50.5948H52.2412C52.3529 50.2246 52.5014 49.6288 52.6882 48.8111C52.8743 47.9944 53.0701 47.139 53.2756 46.2455C53.4796 45.3539 53.6675 44.4993 53.8351 43.6807C54.0031 42.8638 54.1237 42.2499 54.1986 41.8412L52.8004 41.6743Z" fill="#414042"/>
<path d="M106.924 16.6556C106.924 16.6556 100.246 13.7573 100.913 17.6733C101.579 21.5889 106.924 16.6556 106.924 16.6556Z" fill="#FFDE17"/>
<path d="M107.296 16.5103C107.545 16.2069 107.773 15.8974 108 15.5836C108.226 15.2705 108.44 14.949 108.645 14.6241C108.849 14.2995 109.04 13.9673 109.21 13.628C109.376 13.2876 109.532 12.9433 109.637 12.5915C109.743 12.242 109.806 11.8817 109.769 11.5571C109.738 11.2304 109.594 10.9663 109.349 10.7826C109.105 10.5976 108.774 10.4868 108.425 10.4289C108.074 10.3715 107.706 10.3495 107.334 10.3566L107.05 10.3665C106.961 10.3739 106.873 10.3778 106.783 10.3872C106.602 10.4069 106.423 10.4291 106.252 10.469C105.91 10.5405 105.593 10.6684 105.374 10.8499C105.156 11.0307 105.042 11.2647 105.025 11.5655C105.006 11.8644 105.079 12.2034 105.195 12.5341C105.311 12.8676 105.476 13.1959 105.652 13.5198C105.831 13.8441 106.034 14.1593 106.244 14.4716C106.456 14.7829 106.681 15.0871 106.912 15.3884C107.145 15.6886 107.384 15.9823 107.636 16.2661L107.048 16.8357L106.848 16.6499L106.637 16.4587C106.496 16.3321 106.352 16.2074 106.206 16.0848C105.915 15.8395 105.614 15.6061 105.309 15.3797C105.004 15.1552 104.69 14.9422 104.367 14.7499C104.043 14.5591 103.711 14.3846 103.367 14.2549C103.025 14.1258 102.669 14.0343 102.328 14.0485C101.986 14.0571 101.677 14.1942 101.456 14.4517C101.234 14.7085 101.102 15.059 101.024 15.4196C100.946 15.7824 100.909 16.1616 100.906 16.542L100.909 16.8299C100.913 16.9232 100.915 17.0167 100.923 17.1111C100.938 17.2992 100.958 17.4873 100.995 17.6699C101.066 18.0351 101.192 18.393 101.416 18.665C101.637 18.9391 101.965 19.0963 102.322 19.1146C102.679 19.1392 103.049 19.0528 103.401 18.9278C103.755 18.802 104.096 18.6317 104.428 18.4449C104.758 18.2542 105.077 18.0422 105.389 17.819C105.7 17.5952 106.003 17.3587 106.296 17.1113C106.443 16.9877 106.588 16.8622 106.73 16.7346L106.943 16.5412L107.047 16.4435L107.143 16.3502L107.53 16.7264C107.283 17.0099 107.042 17.3128 106.813 17.6167C106.583 17.9225 106.364 18.2343 106.157 18.5526C105.951 18.8712 105.758 19.1964 105.587 19.5278C105.416 19.8584 105.263 20.1962 105.156 20.536C105.05 20.874 104.988 21.2185 105.015 21.5185C105.041 21.8216 105.165 22.0496 105.384 22.2207C105.606 22.3915 105.921 22.5047 106.261 22.5657C106.601 22.6276 106.965 22.6485 107.333 22.6441L107.615 22.6354C107.703 22.6289 107.789 22.6252 107.878 22.6163C108.055 22.598 108.233 22.5767 108.399 22.5388C108.735 22.4698 109.041 22.3478 109.245 22.1772C109.448 22.0069 109.549 21.7989 109.566 21.5135C109.584 21.2311 109.513 20.9004 109.398 20.5761C109.283 20.2491 109.12 19.9245 108.944 19.6038C108.767 19.2831 108.567 18.9689 108.354 18.6611C108.141 18.3535 107.915 18.0519 107.679 17.7574C107.444 17.4637 107.195 17.1734 106.949 16.9007L107.696 16.1618C107.823 16.2802 107.97 16.4102 108.112 16.5315C108.255 16.6544 108.4 16.7749 108.547 16.8933C108.842 17.1294 109.142 17.3584 109.449 17.5748C109.756 17.7899 110.07 17.9932 110.39 18.174C110.711 18.3537 111.038 18.5183 111.367 18.6362C111.695 18.7544 112.03 18.8295 112.323 18.8141C112.619 18.7999 112.846 18.6944 113.028 18.4829C113.209 18.2712 113.339 17.9581 113.413 17.6183C113.489 17.2806 113.523 16.9054 113.532 16.5491L113.533 16.259C113.53 16.1697 113.529 16.0814 113.524 15.991C113.511 15.8105 113.497 15.6289 113.466 15.4557C113.409 15.1072 113.3 14.7763 113.114 14.5308C112.93 14.2856 112.664 14.1394 112.334 14.1069C112.007 14.0697 111.644 14.1326 111.293 14.2376C110.939 14.3427 110.592 14.4965 110.251 14.6634C109.91 14.8332 109.577 15.0239 109.251 15.2285C108.925 15.4329 108.604 15.6478 108.291 15.8744C107.977 16.1008 107.666 16.3321 107.367 16.5789L107.296 16.5103ZM107.301 16.5056C107.849 15.9493 108.439 15.434 109.067 14.9603C109.383 14.7252 109.708 14.5015 110.049 14.2958C110.39 14.0912 110.747 13.9059 111.13 13.7608C111.513 13.6188 111.926 13.5077 112.378 13.5242C112.603 13.5331 112.837 13.5813 113.055 13.6843C113.272 13.7857 113.468 13.9392 113.62 14.1176C113.926 14.479 114.079 14.9047 114.172 15.3132C114.222 15.5194 114.249 15.7245 114.272 15.9299C114.284 16.0332 114.289 16.1385 114.297 16.2428L114.309 16.5344L114.31 16.8464C114.306 16.9491 114.305 17.0511 114.298 17.1545C114.284 17.361 114.266 17.569 114.226 17.78C114.188 17.9903 114.138 18.2031 114.055 18.4156C113.973 18.6275 113.866 18.8416 113.71 19.0365C113.556 19.2315 113.352 19.4052 113.12 19.5239C112.887 19.6449 112.634 19.7046 112.393 19.7259C111.907 19.7646 111.466 19.6661 111.06 19.5372C110.652 19.4046 110.275 19.2317 109.913 19.0392C109.552 18.8461 109.208 18.6328 108.874 18.4096C108.539 18.1853 108.215 17.95 107.902 17.7029C107.744 17.5795 107.589 17.454 107.436 17.3259C107.281 17.1957 107.135 17.0707 106.976 16.9261L107.723 16.1875C108.003 16.4862 108.255 16.7901 108.506 17.1024C108.754 17.4147 108.994 17.7357 109.223 18.0669C109.45 18.3988 109.667 18.7402 109.865 19.0992C110.062 19.4589 110.238 19.8359 110.374 20.2439C110.507 20.6513 110.61 21.0943 110.573 21.5887C110.553 21.8337 110.493 22.0928 110.37 22.3315C110.249 22.5702 110.071 22.7806 109.871 22.9394C109.671 23.0997 109.452 23.2121 109.236 23.2967C109.02 23.3829 108.804 23.4353 108.59 23.477C108.375 23.5194 108.165 23.5399 107.956 23.5564C107.85 23.5642 107.742 23.5666 107.635 23.5716L107.334 23.5737C106.924 23.5682 106.508 23.537 106.085 23.4497C105.665 23.3607 105.221 23.2126 104.834 22.8946C104.642 22.7363 104.475 22.5298 104.363 22.2982C104.249 22.0669 104.196 21.8172 104.182 21.5809C104.155 21.104 104.267 20.6751 104.409 20.2811C104.553 19.886 104.74 19.5223 104.941 19.1728C105.146 18.8248 105.37 18.4937 105.604 18.1727C105.839 17.8525 106.085 17.5426 106.34 17.2407C106.596 16.9387 106.856 16.647 107.136 16.3596L107.523 16.7356L107.404 16.8388L107.29 16.9342L107.06 17.1213C106.906 17.2447 106.751 17.3652 106.594 17.4834C106.278 17.7189 105.957 17.9471 105.627 18.1638C105.297 18.3794 104.958 18.5827 104.606 18.7669C104.256 18.9516 103.894 19.1206 103.51 19.2448C103.128 19.3669 102.722 19.4542 102.3 19.4251C102.09 19.4088 101.877 19.3593 101.683 19.2605C101.489 19.1633 101.318 19.0213 101.184 18.8555C100.918 18.5206 100.782 18.1216 100.702 17.7299C100.659 17.5329 100.638 17.3345 100.618 17.1365C100.608 17.0374 100.604 16.9368 100.597 16.837L100.589 16.543C100.587 16.1482 100.603 15.7494 100.675 15.3504C100.746 14.954 100.877 14.5481 101.144 14.1976C101.278 14.0241 101.453 13.8724 101.654 13.7668C101.854 13.6591 102.077 13.6031 102.295 13.5816C102.733 13.542 103.152 13.624 103.545 13.7422C103.938 13.8622 104.31 14.0265 104.669 14.2075C105.026 14.3899 105.371 14.5927 105.707 14.8067C106.042 15.0205 106.366 15.2516 106.684 15.4892C106.842 15.6087 106.999 15.7303 107.154 15.8547L107.385 16.0439L107.499 16.1414L107.619 16.2472L107.03 16.8171C106.757 16.5289 106.495 16.2284 106.242 15.9226C105.988 15.6168 105.748 15.299 105.518 14.9715C105.288 14.6443 105.074 14.3031 104.877 13.9479C104.681 13.5915 104.506 13.2184 104.37 12.8168C104.239 12.4157 104.138 11.9813 104.173 11.5028C104.192 11.266 104.25 11.0171 104.368 10.7881C104.483 10.5588 104.654 10.3568 104.846 10.2038C105.038 10.0484 105.251 9.94103 105.462 9.85902C105.674 9.77622 105.886 9.72487 106.096 9.68557C106.307 9.64444 106.515 9.62557 106.721 9.61011C106.825 9.60278 106.931 9.60094 107.036 9.59623L107.336 9.5957C107.742 9.60304 108.154 9.63343 108.568 9.72566C108.978 9.81762 109.406 9.96854 109.77 10.2725C109.95 10.4239 110.105 10.6188 110.208 10.8366C110.312 11.0543 110.362 11.289 110.371 11.5138C110.389 11.9663 110.277 12.3792 110.135 12.7618C109.989 13.1448 109.805 13.5017 109.598 13.8418C109.392 14.1816 109.167 14.5062 108.93 14.8203C108.693 15.134 108.441 15.4353 108.183 15.729C107.924 16.0211 107.651 16.3059 107.373 16.5739L107.301 16.5056Z" fill="url(#paint17_linear_197_22470)"/>
<path d="M161.839 29.0376C161.933 29.0481 162.033 29.0534 162.138 29.0534C162.243 29.0534 162.343 29.0534 162.438 29.0534C162.711 29.0534 162.945 28.9855 163.14 28.8493C163.334 28.713 163.431 28.43 163.431 28.0004V19.6057H168.919V29.0379H169.802V31.8675H168.036V30.6099H163.605V31.8675H161.839V29.0376ZM165.166 27.8741C165.166 28.3355 165.119 28.723 165.024 29.0374H167.184V21.1772H165.166V27.8741Z" fill="#414042"/>
<path d="M170.354 22.2465C170.354 21.356 170.58 20.6719 171.032 20.195C171.484 19.7184 172.135 19.4797 172.987 19.4797C173.838 19.4797 174.49 19.7184 174.942 20.195C175.394 20.6719 175.62 21.356 175.62 22.2465V27.9687C175.62 28.8595 175.394 29.5436 174.942 30.0202C174.49 30.497 173.838 30.7355 172.987 30.7355C172.135 30.7355 171.483 30.497 171.032 30.0202C170.58 29.5436 170.354 28.8595 170.354 27.9687V22.2465ZM172.088 28.0785C172.088 28.477 172.17 28.7573 172.333 28.9195C172.495 29.0822 172.714 29.1634 172.987 29.1634C173.26 29.1634 173.478 29.0822 173.641 28.9195C173.804 28.7573 173.886 28.477 173.886 28.0785V22.1362C173.886 21.738 173.804 21.4576 173.641 21.2952C173.478 21.1327 173.26 21.0512 172.987 21.0512C172.714 21.0512 172.495 21.1327 172.333 21.2952C172.17 21.4576 172.088 21.738 172.088 22.1362V28.0785Z" fill="#414042"/>
<path d="M178.459 23.7399H179.279C180.151 23.7399 180.8 23.9705 181.226 24.4316C181.652 24.893 181.865 25.569 181.865 26.4595V27.8901C181.865 28.7809 181.652 29.4569 181.226 29.918C180.8 30.3794 180.151 30.6097 179.279 30.6097H176.724V19.6055H181.313V21.1775H178.459V23.7399ZM179.279 29.0377C179.552 29.0377 179.762 28.9646 179.909 28.8176C180.057 28.6708 180.13 28.3984 180.13 28.0001V26.3495C180.13 25.9512 180.057 25.6787 179.909 25.532C179.762 25.3853 179.552 25.3119 179.279 25.3119H178.459V29.0377H179.279Z" fill="#414042"/>
<path d="M188.488 30.6097H186.737L186.438 28.6132H184.309L184.009 30.6097H182.416L184.182 19.6055H186.721L188.488 30.6097ZM184.53 27.1195H186.201L185.365 21.5548L184.53 27.1195Z" fill="#414042"/>
<path d="M191.893 19.6055C192.797 19.6055 193.452 19.8153 193.857 20.2343C194.261 20.6535 194.464 21.2875 194.464 22.1364V22.5294C194.464 23.0954 194.374 23.5617 194.196 23.9286C194.017 24.2954 193.733 24.5678 193.344 24.746C193.817 24.9244 194.151 25.215 194.346 25.6185C194.54 26.022 194.637 26.5172 194.637 27.1041V28.0001C194.637 28.849 194.416 29.4962 193.975 29.9416C193.533 30.387 192.876 30.6097 192.004 30.6097H189.276V19.6055H191.893ZM191.01 21.1775V24.0858H191.689C192.014 24.0858 192.269 24.0022 192.453 23.8342C192.637 23.6668 192.729 23.3626 192.729 22.9227V22.3096C192.729 21.9114 192.658 21.6232 192.516 21.4447C192.374 21.2666 192.151 21.1775 191.846 21.1775H191.01ZM191.01 25.6575V29.0374H192.004C192.298 29.0374 192.522 28.9588 192.674 28.8016C192.826 28.6444 192.903 28.3614 192.903 27.953V26.994C192.903 26.4805 192.816 26.1294 192.643 25.9405C192.469 25.7518 192.183 25.6575 191.783 25.6575H191.01Z" fill="#414042"/>
<path d="M197.933 26.2235L197.397 27.2296V30.6094H195.662V19.6052H197.397V24.3999L199.699 19.6052H201.402L198.989 24.51L201.402 30.6094H199.62L197.933 26.2235Z" fill="#414042"/>
<path d="M203.972 30.6097H202.19V19.6055H203.736V26.1923L205.517 19.6055H207.693V30.6097H206.133V22.6395L203.972 30.6097Z" fill="#414042"/>
<path d="M210.768 29.0376C210.863 29.0481 210.963 29.0534 211.068 29.0534C211.173 29.0534 211.273 29.0534 211.368 29.0534C211.641 29.0534 211.875 28.9855 212.069 28.8493C212.264 28.713 212.361 28.43 212.361 28.0004V19.6057H217.849V29.0379H218.732V31.8675H216.965V30.6099H212.534V31.8675H210.768V29.0376ZM214.096 27.8741C214.096 28.3355 214.048 28.723 213.954 29.0374H216.114V21.1772H214.096V27.8741Z" fill="#414042"/>
<path d="M224.314 21.1775H222.295V27.8743C222.295 28.43 222.226 28.8859 222.09 29.2423C221.953 29.5986 221.769 29.8789 221.538 30.0833C221.307 30.2874 221.041 30.4318 220.742 30.5153C220.442 30.5994 220.129 30.6411 219.804 30.6411C219.646 30.6411 219.504 30.6411 219.378 30.6411C219.252 30.6411 219.115 30.6306 218.968 30.6097V29.0376C219.062 29.0481 219.162 29.0534 219.268 29.0534C219.373 29.0534 219.472 29.0534 219.567 29.0534C219.841 29.0534 220.074 28.9855 220.269 28.8493C220.463 28.713 220.561 28.43 220.561 28.0004V19.6057H226.048V30.6099H224.314V21.1775Z" fill="#414042"/>
<path d="M226.994 30.6097C227.078 30.4001 227.131 30.1931 227.152 29.9887C227.173 29.7843 227.183 29.5462 227.183 29.2737V27.5759C227.183 26.9998 227.265 26.5098 227.428 26.1061C227.591 25.7028 227.893 25.412 228.334 25.2338C227.578 24.8778 227.199 24.1334 227.199 23.0013V22.1367C227.199 21.2878 227.402 20.6537 227.806 20.2345C228.211 19.8153 228.865 19.6057 229.77 19.6057H232.387V30.6099H230.653V26.1296H230.054C229.654 26.1296 229.365 26.2344 229.186 26.4438C229.007 26.6536 228.918 27.0152 228.918 27.5287V29.258C228.918 29.4781 228.915 29.6615 228.91 29.8085C228.905 29.9554 228.894 30.0757 228.879 30.17C228.863 30.2641 228.844 30.3429 228.824 30.4056C228.802 30.4684 228.782 30.5368 228.761 30.6099L226.994 30.6097ZM229.817 21.1775C229.512 21.1775 229.288 21.2666 229.146 21.4447C229.004 21.6232 228.933 21.9114 228.933 22.3096V23.3943C228.933 23.8345 229.025 24.1387 229.209 24.3061C229.393 24.4738 229.648 24.5576 229.974 24.5576H230.652V21.1777L229.817 21.1775Z" fill="#414042"/>
<path d="M239.373 22.3094C239.373 21.8168 239.291 21.4841 239.128 21.3109C238.965 21.138 238.747 21.0515 238.474 21.0515C238.2 21.0515 237.982 21.133 237.819 21.2954C237.656 21.4579 237.575 21.7382 237.575 22.1365V23.3155H235.935V22.2465C235.935 21.356 236.153 20.6719 236.589 20.195C237.025 19.7184 237.67 19.4797 238.521 19.4797C239.373 19.4797 240.017 19.7184 240.453 20.195C240.889 20.6719 241.107 21.356 241.107 22.2465V22.5295C241.107 23.7033 240.702 24.4578 239.893 24.7932C240.335 24.9818 240.647 25.2727 240.831 25.6657C241.015 26.0587 241.107 26.5382 241.107 27.1041V27.9687C241.107 28.8595 240.889 29.5436 240.453 30.0202C240.017 30.497 239.373 30.7355 238.521 30.7355C237.67 30.7355 237.026 30.497 236.589 30.0202C236.153 29.5436 235.935 28.8595 235.935 27.9687V26.5853H237.575V28.0787C237.575 28.4773 237.656 28.7576 237.819 28.9198C237.982 29.0825 238.2 29.1637 238.474 29.1637C238.747 29.1637 238.965 29.0799 239.128 28.9119C239.291 28.7445 239.373 28.4146 239.373 27.9218V27.0572C239.373 26.5437 239.283 26.1821 239.105 25.9722C238.926 25.7626 238.637 25.6578 238.237 25.6578H237.969V24.0858H238.332C238.657 24.0858 238.912 24.0022 239.096 23.8343C239.28 23.6668 239.372 23.3627 239.372 22.9227L239.373 22.3094Z" fill="#414042"/>
<path d="M241.58 29.0376C241.674 29.0481 241.774 29.0534 241.879 29.0534C241.984 29.0534 242.084 29.0534 242.179 29.0534C242.452 29.0534 242.686 28.9855 242.881 28.8493C243.075 28.713 243.172 28.43 243.172 28.0004V19.6057H248.66V29.0379H249.543V31.8675H247.777V30.6099H243.346V31.8675H241.58V29.0376ZM244.907 27.8741C244.907 28.3355 244.86 28.723 244.765 29.0374H246.925V21.1772H244.907V27.8741Z" fill="#414042"/>
<path d="M250.095 22.2465C250.095 21.356 250.321 20.6719 250.773 20.195C251.225 19.7184 251.877 19.4797 252.728 19.4797C253.579 19.4797 254.231 19.7184 254.683 20.195C255.135 20.6719 255.361 21.356 255.361 22.2465V27.9687C255.361 28.8595 255.135 29.5436 254.683 30.0202C254.231 30.497 253.579 30.7355 252.728 30.7355C251.877 30.7355 251.225 30.497 250.773 30.0202C250.321 29.5436 250.095 28.8595 250.095 27.9687V22.2465ZM251.83 28.0785C251.83 28.477 251.911 28.7573 252.074 28.9195C252.237 29.0822 252.455 29.1634 252.728 29.1634C253.001 29.1634 253.22 29.0822 253.383 28.9195C253.545 28.7573 253.627 28.477 253.627 28.0785V22.1362C253.627 21.738 253.545 21.4576 253.383 21.2952C253.22 21.1327 253.001 21.0512 252.728 21.0512C252.455 21.0512 252.237 21.1327 252.074 21.2952C251.911 21.4576 251.83 21.738 251.83 22.1362V28.0785Z" fill="#414042"/>
<path d="M259.02 19.6055C259.892 19.6055 260.542 19.836 260.967 20.2972C261.393 20.7586 261.606 21.4345 261.606 22.3251V23.7556C261.606 24.6464 261.393 25.3224 260.967 25.7835C260.542 26.2449 259.892 26.4752 259.02 26.4752H258.2V30.6097H256.465V19.6055H259.02ZM258.2 21.1775V24.9032H259.02C259.293 24.9032 259.503 24.8301 259.65 24.6831C259.798 24.5364 259.871 24.2639 259.871 23.8657V22.215C259.871 21.8168 259.798 21.5443 259.65 21.3976C259.503 21.2509 259.293 21.1775 259.02 21.1775H258.2Z" fill="#414042"/>
<path d="M262.237 22.2465C262.237 21.356 262.463 20.6719 262.915 20.195C263.367 19.7184 264.019 19.4797 264.87 19.4797C265.721 19.4797 266.373 19.7184 266.825 20.195C267.277 20.6719 267.503 21.356 267.503 22.2465V27.9687C267.503 28.8595 267.277 29.5436 266.825 30.0202C266.373 30.497 265.721 30.7355 264.87 30.7355C264.019 30.7355 263.367 30.497 262.915 30.0202C262.463 29.5436 262.237 28.8595 262.237 27.9687V22.2465ZM263.971 28.0785C263.971 28.477 264.053 28.7573 264.216 28.9195C264.378 29.0822 264.597 29.1634 264.87 29.1634C265.143 29.1634 265.361 29.0822 265.524 28.9195C265.687 28.7573 265.769 28.477 265.769 28.0785V22.1362C265.769 21.738 265.687 21.4576 265.524 21.2952C265.361 21.1327 265.143 21.0512 264.87 21.0512C264.597 21.0512 264.378 21.1327 264.216 21.2952C264.053 21.4576 263.971 21.738 263.971 22.1362V28.0785Z" fill="#414042"/>
<path d="M271.225 19.6055C272.129 19.6055 272.783 19.8153 273.188 20.2343C273.592 20.6535 273.795 21.2875 273.795 22.1364V22.5294C273.795 23.0954 273.706 23.5617 273.527 23.9286C273.348 24.2954 273.064 24.5678 272.676 24.746C273.149 24.9244 273.482 25.215 273.677 25.6185C273.871 26.022 273.969 26.5172 273.969 27.1041V28.0001C273.969 28.849 273.748 29.4962 273.306 29.9416C272.864 30.387 272.207 30.6097 271.335 30.6097H268.607V19.6055H271.225ZM270.341 21.1775V24.0858H271.02C271.345 24.0858 271.6 24.0022 271.784 23.8342C271.968 23.6668 272.06 23.3626 272.06 22.9227V22.3096C272.06 21.9114 271.989 21.6232 271.847 21.4447C271.705 21.2666 271.482 21.1775 271.177 21.1775H270.341ZM270.341 25.6575V29.0374H271.335C271.629 29.0374 271.853 28.9588 272.005 28.8016C272.157 28.6444 272.234 28.3614 272.234 27.953V26.994C272.234 26.4805 272.147 26.1294 271.974 25.9405C271.8 25.7518 271.514 25.6575 271.114 25.6575H270.341Z" fill="#414042"/>
<path d="M274.994 30.6097V19.6055H276.728V23.7399H277.548C278.42 23.7399 279.07 23.9705 279.496 24.4316C279.921 24.893 280.134 25.569 280.134 26.4595V27.8901C280.134 28.7809 279.921 29.4569 279.496 29.918C279.07 30.3794 278.42 30.6097 277.548 30.6097H274.994ZM277.548 29.0377C277.821 29.0377 278.031 28.9646 278.178 28.8176C278.326 28.6708 278.399 28.3984 278.399 28.0001V26.3495C278.399 25.9512 278.326 25.6787 278.178 25.532C278.031 25.3853 277.821 25.3119 277.548 25.3119H276.728V29.0377H277.548Z" fill="#414042"/>
<path d="M280.607 30.6097C280.691 30.4001 280.744 30.1931 280.765 29.9887C280.786 29.7843 280.796 29.5462 280.796 29.2737V27.5759C280.796 26.9998 280.878 26.5098 281.041 26.1061C281.204 25.7028 281.506 25.412 281.947 25.2338C281.19 24.8778 280.812 24.1334 280.812 23.0013V22.1367C280.812 21.2878 281.015 20.6537 281.419 20.2345C281.824 19.8153 282.478 19.6057 283.383 19.6057H286V30.6099H284.266V26.1296H283.666C283.267 26.1296 282.978 26.2344 282.799 26.4438C282.62 26.6536 282.531 27.0152 282.531 27.5287V29.258C282.531 29.4781 282.528 29.6615 282.523 29.8085C282.518 29.9554 282.507 30.0757 282.492 30.17C282.476 30.2641 282.457 30.3429 282.436 30.4056C282.415 30.4684 282.394 30.5368 282.373 30.6099L280.607 30.6097ZM283.43 21.1775C283.124 21.1775 282.901 21.2666 282.759 21.4447C282.617 21.6232 282.546 21.9114 282.546 22.3096V23.3943C282.546 23.8345 282.638 24.1387 282.822 24.3061C283.006 24.4738 283.261 24.5576 283.587 24.5576H284.265V21.1777L283.43 21.1775Z" fill="#414042"/>
<path d="M164.251 49.4742H162.47V38.47H164.015V45.0568L165.797 38.47H167.973V49.4742H166.412V41.504L164.251 49.4742Z" fill="#414042"/>
<path d="M176.692 45.3707V46.8327C176.692 47.7235 176.474 48.4076 176.038 48.8842C175.602 49.3611 174.958 49.5995 174.106 49.5995C173.255 49.5995 172.611 49.3611 172.174 48.8842C171.738 48.4076 171.52 47.7235 171.52 46.8327V41.1105C171.52 40.22 171.738 39.5359 172.174 39.059C172.61 38.5824 173.255 38.3438 174.106 38.3438C174.958 38.3438 175.601 38.5824 176.038 39.059C176.474 39.5359 176.692 40.22 176.692 41.1105V42.1795H175.052V41.0005C175.052 40.6022 174.971 40.3219 174.808 40.1594C174.645 39.997 174.427 39.9155 174.154 39.9155C173.88 39.9155 173.662 39.997 173.499 40.1594C173.336 40.3219 173.255 40.6022 173.255 41.0005V46.9428C173.255 47.3413 173.336 47.6187 173.499 47.7759C173.662 47.9334 173.88 48.0117 174.154 48.0117C174.427 48.0117 174.645 47.9331 174.808 47.7759C174.971 47.6187 175.052 47.3413 175.052 46.9428V45.3707H176.692Z" fill="#414042"/>
<path d="M179.531 49.4742H177.796V38.47H183.268V49.4742H181.502V40.042H179.53L179.531 49.4742Z" fill="#414042"/>
<path d="M184.371 41.1108C184.371 40.2202 184.597 39.5361 185.049 39.0593C185.501 38.5827 186.153 38.344 187.005 38.344C187.856 38.344 188.508 38.5827 188.96 39.0593C189.412 39.5361 189.638 40.2202 189.638 41.1108V46.833C189.638 47.7238 189.412 48.4079 188.96 48.8845C188.508 49.3613 187.856 49.5997 187.005 49.5997C186.153 49.5997 185.501 49.3613 185.049 48.8845C184.597 48.4079 184.371 47.7238 184.371 46.833V41.1108ZM186.106 46.9427C186.106 47.3412 186.187 47.6216 186.351 47.7838C186.513 47.9465 186.731 48.0277 187.005 48.0277C187.278 48.0277 187.496 47.9465 187.659 47.7838C187.822 47.6216 187.904 47.3412 187.904 46.9427V41.0005C187.904 40.6022 187.822 40.3219 187.659 40.1594C187.496 39.997 187.278 39.9155 187.005 39.9155C186.731 39.9155 186.513 39.997 186.351 40.1594C186.187 40.3219 186.106 40.6022 186.106 41.0005V46.9427Z" fill="#414042"/>
<path d="M193.296 38.47C194.169 38.47 194.818 38.7005 195.244 39.1617C195.67 39.6231 195.883 40.299 195.883 41.1896V42.6201C195.883 43.511 195.67 44.1869 195.244 44.6481C194.818 45.1094 194.169 45.3397 193.296 45.3397H192.477V49.4742H190.742V38.47H193.296ZM192.477 40.042V43.7677H193.296C193.57 43.7677 193.78 43.6946 193.927 43.5476C194.074 43.4009 194.148 43.1284 194.148 42.7302V41.0795C194.148 40.6813 194.074 40.4088 193.927 40.2621C193.78 40.1154 193.57 40.042 193.296 40.042H192.477Z" fill="#414042"/>
<path d="M196.198 38.47H201.559V40.042H199.746V49.4742H198.011V40.042H196.198V38.47Z" fill="#414042"/>
<path d="M207.945 49.4742H206.195L205.895 47.4777H203.766L203.466 49.4742H201.874L203.64 38.47H206.179L207.945 49.4742ZM203.987 45.984H205.659L204.823 40.4193L203.987 45.984Z" fill="#414042"/>
</g>
<defs>
<linearGradient id="paint0_linear_197_22470" x1="7.60102" y1="13.7742" x2="10.8251" y2="13.7105" gradientUnits="userSpaceOnUse">
<stop stop-color="#2F9E4A"/>
<stop offset="1" stop-color="#91C140"/>
</linearGradient>
<linearGradient id="paint1_linear_197_22470" x1="3.01359" y1="22.8812" x2="6.27565" y2="22.8167" gradientUnits="userSpaceOnUse">
<stop stop-color="#2F9E4A"/>
<stop offset="1" stop-color="#91C140"/>
</linearGradient>
<linearGradient id="paint2_linear_197_22470" x1="0.466936" y1="32.8796" x2="5.27267" y2="32.7846" gradientUnits="userSpaceOnUse">
<stop stop-color="#2F9E4A"/>
<stop offset="1" stop-color="#91C140"/>
</linearGradient>
<linearGradient id="paint3_linear_197_22470" x1="0.0826629" y1="43.2584" x2="8.14788" y2="43.099" gradientUnits="userSpaceOnUse">
<stop stop-color="#2F9E4A"/>
<stop offset="1" stop-color="#91C140"/>
</linearGradient>
<linearGradient id="paint4_linear_197_22470" x1="2.93784" y1="53.0058" x2="13.9545" y2="52.7881" gradientUnits="userSpaceOnUse">
<stop stop-color="#2F9E4A"/>
<stop offset="1" stop-color="#91C140"/>
</linearGradient>
<linearGradient id="paint5_linear_197_22470" x1="8.9073" y1="60.8775" x2="22.1315" y2="60.6162" gradientUnits="userSpaceOnUse">
<stop stop-color="#2F9E4A"/>
<stop offset="1" stop-color="#91C140"/>
</linearGradient>
<linearGradient id="paint6_linear_197_22470" x1="17.7265" y1="65.5371" x2="31.7714" y2="65.2595" gradientUnits="userSpaceOnUse">
<stop stop-color="#2F9E4A"/>
<stop offset="1" stop-color="#91C140"/>
</linearGradient>
<linearGradient id="paint7_linear_197_22470" x1="9.15089" y1="16.3751" x2="16.3143" y2="16.2336" gradientUnits="userSpaceOnUse">
<stop stop-color="#2F9E4A"/>
<stop offset="1" stop-color="#91C140"/>
</linearGradient>
<linearGradient id="paint8_linear_197_22470" x1="5.8089" y1="24.7738" x2="12.5942" y2="24.6397" gradientUnits="userSpaceOnUse">
<stop stop-color="#2F9E4A"/>
<stop offset="1" stop-color="#91C140"/>
</linearGradient>
<linearGradient id="paint9_linear_197_22470" x1="5.26457" y1="33.7664" x2="10.7708" y2="33.6575" gradientUnits="userSpaceOnUse">
<stop stop-color="#2F9E4A"/>
<stop offset="1" stop-color="#91C140"/>
</linearGradient>
<linearGradient id="paint10_linear_197_22470" x1="7.2177" y1="42.3404" x2="11.2385" y2="42.261" gradientUnits="userSpaceOnUse">
<stop stop-color="#2F9E4A"/>
<stop offset="1" stop-color="#91C140"/>
</linearGradient>
<linearGradient id="paint11_linear_197_22470" x1="11.1793" y1="49.8527" x2="15.3212" y2="49.7708" gradientUnits="userSpaceOnUse">
<stop stop-color="#2F9E4A"/>
<stop offset="1" stop-color="#91C140"/>
</linearGradient>
<linearGradient id="paint12_linear_197_22470" x1="16.8577" y1="55.4916" x2="22.2514" y2="55.385" gradientUnits="userSpaceOnUse">
<stop stop-color="#2F9E4A"/>
<stop offset="1" stop-color="#91C140"/>
</linearGradient>
<linearGradient id="paint13_linear_197_22470" x1="11.8634" y1="10.188" x2="19.9553" y2="10.0281" gradientUnits="userSpaceOnUse">
<stop stop-color="#2F9E4A"/>
<stop offset="1" stop-color="#91C140"/>
</linearGradient>
<linearGradient id="paint14_linear_197_22470" x1="23.584" y1="58.3297" x2="31.6315" y2="58.1706" gradientUnits="userSpaceOnUse">
<stop stop-color="#2F9E4A"/>
<stop offset="1" stop-color="#91C140"/>
</linearGradient>
<linearGradient id="paint15_linear_197_22470" x1="24.6616" y1="35.5142" x2="37.668" y2="35.5142" gradientUnits="userSpaceOnUse">
<stop stop-color="#2F9E4A"/>
<stop offset="1" stop-color="#91C140"/>
</linearGradient>
<linearGradient id="paint16_linear_197_22470" x1="43.9072" y1="25.1336" x2="36.3934" y2="25.1336" gradientUnits="userSpaceOnUse">
<stop stop-color="#2F9E4A"/>
<stop offset="1" stop-color="#91C140"/>
</linearGradient>
<linearGradient id="paint17_linear_197_22470" x1="100.254" y1="16.5837" x2="114.414" y2="16.5837" gradientUnits="userSpaceOnUse">
<stop stop-color="#2F9E4A"/>
<stop offset="1" stop-color="#91C140"/>
</linearGradient>
<clipPath id="clip0_197_22470">
<rect width="286" height="68" fill="white"/>
</clipPath>
</defs>
</svg>
