<svg width="150" height="150" viewBox="0 0 150 150" fill="none" xmlns="http://www.w3.org/2000/svg">
<circle cx="75" cy="75" r="74.5" fill="white" stroke="#0066FF"/>
<path d="M82.7458 61.6294L82.7457 61.6295L82.7568 61.6356C82.9623 61.7478 83.143 61.9005 83.2879 62.0843C83.4329 62.2681 83.5391 62.4793 83.6002 62.7052C83.6614 62.9311 83.6762 63.167 83.6438 63.3987C83.6114 63.6305 83.5324 63.8533 83.4116 64.0538L83.4115 64.0537L83.4069 64.0616L70.3192 86.7062C70.3188 86.7068 70.3185 86.7074 70.3181 86.708C70.1589 86.9771 69.9326 87.2005 69.6612 87.3562C69.3893 87.5122 69.0814 87.595 68.7677 87.5963L68.7581 87.5963L68.7485 87.5968C68.4479 87.6096 68.1503 87.5329 67.8935 87.3762L67.8869 87.3722L67.8801 87.3684C67.6766 87.2527 67.4979 87.0979 67.3545 86.9129C67.2112 86.7279 67.1059 86.5164 67.0447 86.2906C66.9836 86.0647 66.9678 85.829 66.9983 85.597C67.0288 85.365 67.1049 85.1414 67.2223 84.9389L67.2227 84.9383L80.3127 62.2899L80.3145 62.2868C80.4302 62.0834 80.585 61.9049 80.7701 61.7615C80.9552 61.6182 81.1669 61.5129 81.393 61.4518C81.619 61.3907 81.855 61.3749 82.0872 61.4054C82.3194 61.4358 82.5432 61.512 82.7458 61.6294ZM72.4502 68.7272L72.4494 68.7474L72.4503 68.7676C72.5342 70.7291 71.8364 72.6438 70.5099 74.092C69.1884 75.5345 67.3505 76.3967 65.3965 76.4915C63.4389 76.3966 61.5971 75.5353 60.2698 74.0933C58.9374 72.6458 58.2316 70.7306 58.3061 68.7652L58.3068 68.7474L58.3062 68.7296C58.2409 66.77 58.9509 64.8636 60.2823 63.4236C61.6086 61.9891 63.4451 61.1325 65.3965 61.0377C67.3443 61.1325 69.1768 61.9899 70.4972 63.425C71.8228 64.8656 72.5248 66.7715 72.4502 68.7272ZM65.3391 72.9077L65.3966 72.9144L65.4541 72.9077C66.46 72.7911 67.3803 72.2854 68.0177 71.4988C68.6448 70.7251 68.9491 69.7402 68.8686 68.7489C68.9601 67.7539 68.6593 66.7617 68.0293 65.9843C67.3888 65.194 66.4606 64.6904 65.4487 64.5842L65.3965 64.5787L65.3443 64.5842C64.3308 64.6905 63.4 65.1919 62.7537 65.9796C62.1167 66.7561 61.8067 67.7491 61.8882 68.7489C61.8175 69.7448 62.1309 70.7307 62.765 71.5036C63.4083 72.2877 64.3313 72.7912 65.3391 72.9077ZM78.216 80.2384L78.2169 80.2182L78.2161 80.198C78.1416 78.2423 78.8435 76.3364 80.1691 74.8957C81.4895 73.4607 83.322 72.6032 85.2698 72.5084C87.2212 72.6033 89.0578 73.4599 90.384 74.8943C91.7155 76.3344 92.4254 78.2408 92.3601 80.2004L92.3595 80.2182L92.3602 80.236C92.4348 82.2014 91.729 84.1166 90.3966 85.5641C89.0693 87.0061 87.2274 87.8674 85.2698 87.9622C83.3158 87.8675 81.4779 87.0053 80.1565 85.5627C78.83 84.1146 78.1322 82.1999 78.216 80.2384ZM85.2123 84.3785L85.2698 84.3851L85.3273 84.3785C86.335 84.262 87.258 83.7585 87.9014 82.9744C88.5354 82.2015 88.8488 81.2156 88.7782 80.2196C88.8596 79.2199 88.5497 78.2269 87.9126 77.4504C87.2664 76.6627 86.3356 76.1613 85.322 76.055L85.2671 76.0492L85.2123 76.0556C84.2064 76.1721 83.2861 76.6778 82.6486 77.4644C82.021 78.2388 81.7167 79.2249 81.7979 80.217C81.7167 81.2092 82.021 82.1952 82.6486 82.9696C83.2861 83.7562 84.2064 84.2619 85.2123 84.3785Z" fill="#0066FF" stroke="#0066FF"/>
<path d="M75.3176 47.5139L75.3333 47.5144L75.3491 47.5139C82.7517 47.2809 89.9443 49.9937 95.3474 55.0565C100.746 60.1155 103.918 67.1078 104.166 74.5C103.918 81.8922 100.746 88.8845 95.3474 93.9435C89.9443 99.0063 82.7517 101.719 75.3491 101.486L75.3333 101.486L75.3176 101.486C67.915 101.719 60.7224 99.0063 55.3193 93.9435C49.9202 88.8845 46.7489 81.8922 46.5003 74.5C46.7489 67.1078 49.9202 60.1155 55.3193 55.0565C60.7224 49.9937 67.915 47.2809 75.3176 47.5139ZM50.0837 74.4796L50.0829 74.5L50.0837 74.5204C50.3468 80.9652 53.1529 87.0436 57.8881 91.4258C62.619 95.804 68.8906 98.1331 75.3333 97.9052C81.7761 98.1331 88.0477 95.804 92.7785 91.4258C97.5138 87.0436 100.32 80.9652 100.583 74.5204L100.584 74.5L100.583 74.4796C100.32 68.0348 97.5138 61.9564 92.7785 57.5742C88.0477 53.196 81.7761 50.8669 75.3333 51.0948C68.8906 50.8669 62.619 53.196 57.8881 57.5742C53.1529 61.9564 50.3468 68.0348 50.0837 74.4796Z" fill="#0066FF" stroke="#0066FF"/>
</svg>
